<svg width="58" height="33" viewBox="0 0 58 33" fill="none" xmlns="http://www.w3.org/2000/svg">
<path d="M13.819 32.4153C11.795 32.4153 9.947 32.034 8.275 31.2713C6.603 30.5087 5.18033 29.438 4.007 28.0593C2.83366 26.6807 1.90966 25.0087 1.235 23.0433C0.589663 21.078 0.266996 18.9073 0.266996 16.5313C0.266996 14.1847 0.589663 12.0287 1.235 10.0633C1.90966 8.09801 2.83366 6.42601 4.007 5.04734C5.20966 3.66867 6.647 2.59801 8.319 1.83534C9.991 1.07267 11.8243 0.691341 13.819 0.691341C15.843 0.691341 17.691 1.07267 19.363 1.83534C21.035 2.59801 22.4577 3.66867 23.631 5.04734C24.8043 6.42601 25.7137 8.09801 26.359 10.0633C27.0337 12.0287 27.371 14.1847 27.371 16.5313C27.371 18.9073 27.0483 21.078 26.403 23.0433C25.7577 25.0087 24.8337 26.6807 23.631 28.0593C22.4577 29.438 21.035 30.5087 19.363 31.2713C17.691 32.034 15.843 32.4153 13.819 32.4153ZM13.819 27.1793C16.195 27.1793 18.0723 26.226 19.451 24.3193C20.8297 22.4127 21.519 19.8167 21.519 16.5313C21.519 13.3047 20.815 10.738 19.407 8.83134C18.0283 6.89534 16.1657 5.92734 13.819 5.92734C11.4723 5.92734 9.60966 6.89534 8.231 8.83134C6.85233 10.738 6.163 13.3047 6.163 16.5313C6.163 19.8167 6.85233 22.4127 8.231 24.3193C9.60966 26.226 11.4723 27.1793 13.819 27.1793ZM53.4881 1.17534V19.6993H57.2721V24.7593H53.4881V31.9753H47.4601V24.7593H30.0801V19.9193L46.5361 1.17534H53.4881ZM37.0321 19.6993H47.4601V7.86334L37.0321 19.6993Z" fill="#FA5652"/>
</svg>
 
