<svg width="876" height="880" viewBox="0 0 876 880" fill="none" xmlns="http://www.w3.org/2000/svg">
<g filter="url(#filter0_d)">
<path d="M402.26 729.788C367.424 750.316 330.906 763.667 289.327 763.492C242.983 763.294 197.041 731.596 168.007 696.807C157.221 683.886 147.786 668.952 145.6 652.136C140.562 613.287 175.438 602.236 206.841 602.729C224.541 602.998 241.66 607.999 258.587 612.956C286.691 621.196 318.031 621.931 344.396 635.736C353.247 640.386 360.395 646.632 370.195 649.378C385.441 653.656 401.999 653.903 417.509 657.487C430.758 660.573 446.086 666.874 448.584 680.485C451.13 694.446 438.461 706.049 426.918 713.984C418.752 719.627 410.562 724.913 402.26 729.788Z" fill="url(#paint0_linear)"/>
<path d="M156.317 270.249C196.925 158.931 319.109 87.802 434.236 97.1014C489.752 101.595 541.455 126.903 590.145 154.42C633.063 178.671 675.56 205.776 709.645 242.217C732.917 267.089 752.932 298.872 768.962 329.206C792.945 374.631 796.764 439.922 734.155 450.699C719.465 453.229 705.709 451.056 691.101 449.798C679.282 448.771 669.124 453.693 657.348 454.69C627.711 457.208 597.652 453.362 568.648 447.31C509.534 434.95 452.784 412.277 392.925 403.458C343.875 396.255 293.926 398.684 245.772 410.613C225.457 415.649 204.454 422.428 184.066 417.708C133.809 406.052 139.149 339.456 147.547 300.647C149.76 290.315 152.691 280.157 156.317 270.249Z" fill="url(#paint1_linear)"/>
<path d="M651.275 163.219C663.221 169.804 707.556 184.856 701.347 155.754C699.791 148.506 694.905 142.311 689.275 138.125C682.829 133.315 676.407 131.551 670.814 125.469C663.998 118.142 656.646 111.491 648.852 105.603C632.855 93.2928 615.076 82.6666 596.127 80.6854C582.838 79.301 562.41 85.5834 560.441 103.002C557.567 128.361 594.761 123.59 607.827 129.308C620.222 134.713 629.462 147.012 640.386 155.892C643.836 158.691 647.481 161.143 651.275 163.219Z" fill="url(#paint2_linear)"/>
<path d="M449.397 176.494C474.75 184.26 496.154 200.016 520.208 211.003C560.255 229.291 607.668 223.241 650.698 232.17C694.577 241.286 731.345 263.298 754.962 302.357C785.462 352.77 802.753 417.46 801.537 477.42C800.192 543.421 771.964 594.088 722.83 635.444C673.725 676.775 615.101 704.977 554.2 722.981C548.324 724.723 542.429 726.344 536.487 727.868C402.994 762.034 213.53 758.493 132.845 623.468C132.106 622.235 131.385 620.998 130.658 619.741C122.05 604.603 115.25 588.469 110.405 571.683C93.0811 512.211 87.4535 443.199 94.5976 381.609C99.3938 340.148 124.146 307.82 150.24 277.048C186.901 233.816 236.599 204.814 289.575 187.5C328.804 174.68 373.445 162.43 414.93 168.569C426.597 170.329 438.118 172.978 449.397 176.494Z" fill="url(#paint3_linear)"/>
<path d="M759.981 597.543C736.549 630.888 708.681 658.4 670.731 675.718C628.43 695.017 573.753 685.45 533.23 665.96C518.176 658.723 503.54 649.083 494.745 634.683C474.44 601.407 501.743 576.681 530.551 563.93C546.785 556.735 564.403 554.095 581.83 551.497C610.766 547.191 639.615 534.687 669.219 536.181C679.163 536.697 688.202 539.383 698.241 537.766C713.861 535.255 729.046 528.521 744.626 525.266C757.944 522.509 774.457 521.806 782.239 533.156C790.206 544.805 783.358 560.7 776.052 572.781C770.896 581.354 765.572 589.613 759.981 597.543Z" fill="url(#paint4_linear)"/>
</g>
<defs>
<filter id="filter0_d" x="87.5764" y="80.5004" width="718.021" height="690.994" filterUnits="userSpaceOnUse" color-interpolation-filters="sRGB">
<feFlood flood-opacity="0" result="BackgroundImageFix"/>
<feColorMatrix in="SourceAlpha" type="matrix" values="0 0 0 0 0 0 0 0 0 0 0 0 0 0 0 0 0 0 127 0"/>
<feOffset dy="4"/>
<feGaussianBlur stdDeviation="2"/>
<feColorMatrix type="matrix" values="0 0 0 0 0 0 0 0 0 0 0 0 0 0 0 0 0 0 0.25 0"/>
<feBlend mode="normal" in2="BackgroundImageFix" result="effect1_dropShadow"/>
<feBlend mode="normal" in="SourceGraphic" in2="effect1_dropShadow" result="shape"/>
</filter>
<linearGradient id="paint0_linear" x1="143.257" y1="658.074" x2="208.87" y2="786.68" gradientUnits="userSpaceOnUse">
<stop stop-color="#FFC8C8"/>
<stop offset="1" stop-color="#FFF2F5"/>
</linearGradient>
<linearGradient id="paint1_linear" x1="768.818" y1="250.878" x2="249.379" y2="45.4881" gradientUnits="userSpaceOnUse">
<stop stop-color="white"/>
<stop offset="1" stop-color="#FFD5D5"/>
</linearGradient>
<linearGradient id="paint2_linear" x1="702.223" y1="154.998" x2="542.522" y2="129.155" gradientUnits="userSpaceOnUse">
<stop stop-color="#FFD3D3"/>
<stop offset="1" stop-color="#FFF6F6"/>
</linearGradient>
<linearGradient id="paint3_linear" x1="69.7785" y1="432.137" x2="819.913" y2="432.137" gradientUnits="userSpaceOnUse">
<stop stop-color="#FFF8F5"/>
<stop offset="1" stop-color="#FFDEDE"/>
</linearGradient>
<linearGradient id="paint4_linear" x1="750.82" y1="615.399" x2="554.258" y2="633.171" gradientUnits="userSpaceOnUse">
<stop stop-color="#FFC2C2"/>
<stop offset="1" stop-color="white"/>
</linearGradient>
</defs>
</svg>
