<svg width="551" height="520" viewBox="0 0 551 520" fill="none" xmlns="http://www.w3.org/2000/svg">
<path d="M208.732 492.349C179.378 502.95 149.74 507.848 118.127 501.726C82.8901 494.899 52.327 464.161 35.0579 433.507C28.6414 422.121 23.5332 409.399 24.2007 396.288C25.7538 366.002 53.8234 362.617 77.65 367.516C91.0811 370.271 103.414 376.541 115.606 382.752C135.849 393.071 159.594 398.145 177.742 412.447C183.832 417.26 188.405 423.043 195.481 426.544C206.489 431.995 219.054 434.569 230.359 439.53C240.012 443.787 250.802 450.79 250.816 461.506C250.817 472.497 239.569 479.5 229.686 483.876C222.69 486.993 215.724 489.835 208.732 492.349Z" fill="url(#paint0_linear)"/>
<path d="M100.686 101.688C148.772 29.4528 248.204 0.449053 328.801 27.6078C367.665 40.7108 400.236 67.9948 430.277 96.318C456.758 121.281 482.447 148.206 500.531 180.298C512.879 202.203 521.717 228.461 527.957 252.974C537.288 289.679 528.814 336.973 482.267 333.507C471.346 332.696 461.898 328.693 451.685 325.19C443.423 322.351 435.326 324.054 426.748 322.668C405.157 319.182 384.357 311.079 364.689 301.589C324.605 282.229 287.98 255.927 246.757 238.961C212.974 225.077 176.898 217.908 140.473 217.842C125.106 217.816 108.948 218.913 95.202 211.909C61.3215 194.629 76.5572 148.037 89.2105 121.826C92.5627 114.845 96.3975 108.115 100.686 101.688Z" fill="url(#paint1_linear)"/>
<path d="M477.707 112.591C485.623 119.9 516.726 139.852 517.325 116.438C517.467 110.605 514.871 104.941 511.339 100.669C507.297 95.766 502.716 93.194 499.56 87.4816C495.699 80.5843 491.303 74.1019 486.43 68.1183C476.47 55.6641 464.84 44.1568 450.729 39.0297C440.831 35.4379 424.075 36.3412 419.373 49.2712C412.524 68.0936 441.811 71.5425 450.742 78.402C459.218 84.8948 464.019 96.0511 470.733 104.918C472.855 107.713 475.19 110.282 477.707 112.591Z" fill="url(#paint2_linear)"/>
<path d="M331.316 89.6969C348.085 99.7602 360.663 114.823 375.951 126.955C401.404 147.149 436.292 151.281 465.481 165.324C495.243 179.653 517.717 201.922 527.878 234.017C541.005 275.444 542.253 324.71 531.1 367.3C518.818 414.181 489.975 445.322 447.802 466.09C405.655 486.845 358.964 496.531 312.397 498.529C307.903 498.726 303.416 498.832 298.912 498.861C197.748 499.46 63.0911 463.162 28.6487 352.384C28.333 351.371 28.0304 350.359 27.727 349.333C24.178 336.991 22.0913 324.26 21.5114 311.413C19.345 265.866 27.1653 215.594 42.8305 172.896C53.3668 144.151 76.0549 119.845 99.9622 102.527C133.552 78.1965 174.536 71.9873 215.327 69.0681C245.533 66.9077 279.505 66.1184 308.069 77.8957C316.096 81.2319 323.867 85.1766 331.316 89.6969Z" fill="url(#paint3_linear)"/>
<defs>
<linearGradient id="paint0_linear" x1="40.4302" y1="370.857" x2="131.105" y2="525.649" gradientUnits="userSpaceOnUse">
<stop stop-color="#FFC5C6"/>
<stop offset="1" stop-color="#FFF6F6"/>
</linearGradient>
<linearGradient id="paint1_linear" x1="534.687" y1="193.158" x2="175.359" y2="-36.1059" gradientUnits="userSpaceOnUse">
<stop stop-color="white"/>
<stop offset="1" stop-color="#FFD7D7"/>
</linearGradient>
<linearGradient id="paint2_linear" x1="518.133" y1="116.027" x2="400.505" y2="66.7395" gradientUnits="userSpaceOnUse">
<stop stop-color="#FFBEBF"/>
<stop offset="1" stop-color="#FFFBFC"/>
</linearGradient>
<linearGradient id="paint3_linear" x1="549.544" y1="371.867" x2="39.7857" y2="172.614" gradientUnits="userSpaceOnUse">
<stop stop-color="#FFD7D7"/>
<stop offset="1" stop-color="#FFF8F8"/>
</linearGradient>
</defs>
</svg>
