<svg width="594" height="730" viewBox="0 0 594 730" fill="none" xmlns="http://www.w3.org/2000/svg">
<path d="M248.917 286.262C248.58 286.262 248.24 286.153 247.95 285.925C247.685 285.713 241.417 280.666 236.63 270.37C232.24 260.929 228.341 245.101 234.689 223.279C238.993 208.476 243.308 197.952 247.112 188.661C254.02 171.806 259.012 159.627 259.415 133.809C259.428 132.925 260.067 132.167 261.013 132.228C261.886 132.244 262.579 132.97 262.567 133.86C262.154 160.295 256.799 173.361 250.02 189.901C246.245 199.115 241.968 209.555 237.711 224.194C226.135 263.977 249.649 283.201 249.888 283.387C250.572 283.933 250.695 284.942 250.162 285.642C249.85 286.05 249.387 286.262 248.917 286.262Z" fill="#000C3E"/>
<path d="M378.046 32.5698C377.81 50.0712 363.7 64.0679 346.528 63.827C329.359 63.586 315.631 49.2039 315.864 31.6992C316.1 14.1978 330.213 0.204375 347.382 0.442097C364.551 0.683028 378.282 15.0684 378.046 32.5698Z" fill="#000C3E"/>
<path d="M245.909 274.941C245.909 274.941 255.474 293.891 292.872 299.734C330.268 305.575 359.176 291.131 388.173 301.064C417.17 311.001 458.382 296.146 466.327 283.634C474.275 271.121 469.371 134.794 446.17 112.477C422.969 90.1606 303.751 73.9506 278.634 101.33C253.516 128.713 229.225 259.977 245.909 274.941Z" fill="#000C3E"/>
<path d="M458.413 162.154C457.638 219.833 411.138 265.951 354.55 265.161C297.965 264.371 252.722 216.968 253.497 159.288C254.276 101.609 300.776 55.4907 357.361 56.281C413.946 57.0744 459.188 104.474 458.413 162.154Z" fill="#000C3E"/>
<path d="M272.228 158.828C272.228 158.828 279.391 285.473 363.586 288.91C447.778 292.347 443.533 113.77 412.715 97.5187C381.896 81.2701 255.014 87.5312 272.228 158.828Z" fill="#FFCEB0"/>
<path d="M359.172 183.872C359.172 183.872 376.136 222.495 372.065 225.181C367.993 227.863 355.891 227.696 352.566 224.908C349.241 222.12 352.503 179.667 359.172 183.872Z" fill="#F5A473"/>
<path d="M334.3 197.538C334.189 201.984 330.565 205.498 326.204 205.386C321.842 205.277 318.394 201.582 318.505 197.136C318.612 192.69 322.236 189.176 326.601 189.285C330.962 189.398 334.41 193.092 334.3 197.538Z" fill="#41294A"/>
<path d="M402.027 192.105C401.916 196.551 398.292 200.065 393.93 199.953C389.569 199.844 386.121 196.149 386.231 191.703C386.338 187.257 389.963 183.743 394.328 183.852C398.689 183.965 402.137 187.659 402.027 192.105Z" fill="#41294A"/>
<path d="M336.844 89.6337C336.844 89.6337 307.046 105.224 301.963 133.256C296.876 161.287 301.506 232.639 269.493 230.137C269.493 230.137 204.365 90.2826 336.844 89.6337Z" fill="#41294A"/>
<path d="M352.745 89.8559C350.057 91.9183 383.869 91.0156 403.758 114.438C423.651 137.86 429.632 197.454 432.648 198.488C435.664 199.526 445.853 124.146 424.133 102.099C402.413 80.0547 368.043 78.1208 352.745 89.8559Z" fill="#41294A"/>
<path d="M425.515 203.755C425.515 203.755 432.824 171.83 447.125 182.784C461.427 193.739 449.498 227.203 435.692 230.547C421.888 233.891 418.232 220.296 425.515 203.755Z" fill="#FFCEB0"/>
<path d="M292.811 201.9C292.811 201.9 286.363 169.782 271.771 180.332C257.183 190.881 268.207 224.67 281.916 228.399C295.628 232.126 299.646 218.64 292.811 201.9Z" fill="#FFCEB0"/>
<path d="M390.312 163.699C390.312 163.699 405.181 155.703 414.342 167.191C422.401 177.291 404.009 169.105 397.239 170.413C390.467 171.724 381.523 171.152 390.312 163.699Z" fill="#41294A"/>
<path d="M331.223 166.609C331.223 166.609 315.973 159.397 307.397 171.344C299.856 181.852 317.813 172.719 324.642 173.677C331.468 174.631 340.375 173.593 331.223 166.609Z" fill="#41294A"/>
<path d="M384.913 248.782C384.913 248.782 375.213 233.841 364.718 234.782C354.221 235.726 346.175 249.498 344.763 250.076C344.763 250.076 361.144 257.918 384.913 248.782Z" fill="#41294A"/>
<path d="M325.919 179.608C312.787 179.608 301.955 190.504 301.773 203.894C301.687 210.467 304.114 216.686 308.614 221.402C313.115 226.114 319.144 228.758 325.595 228.848L325.932 228.851C339.064 228.851 349.896 217.958 350.075 204.568C350.258 190.996 339.575 179.8 326.256 179.611L325.919 179.608ZM325.932 232.064L325.551 232.061C318.258 231.961 311.441 228.967 306.355 223.641C301.268 218.311 298.523 211.282 298.621 203.849C298.826 188.712 311.073 176.395 325.919 176.395L326.301 176.398C341.355 176.611 353.432 189.268 353.227 204.61C353.025 219.747 340.778 232.064 325.932 232.064Z" fill="#FFFCF6"/>
<path d="M394.13 174.043C380.995 174.043 370.163 184.939 369.983 198.329C369.801 211.898 380.487 223.097 393.802 223.283L394.14 223.286C407.275 223.286 418.107 212.393 418.286 199.003C418.374 192.428 415.945 186.208 411.448 181.492C406.947 176.783 400.918 174.136 394.467 174.046L394.13 174.043ZM394.14 226.499L393.761 226.496C378.704 226.284 366.627 213.627 366.832 198.284C367.037 183.147 379.28 170.83 394.13 170.83L394.511 170.833C401.804 170.933 408.621 173.927 413.704 179.253C418.794 184.583 421.539 191.612 421.438 199.045C421.233 214.182 408.986 226.499 394.14 226.499Z" fill="#FFFCF6"/>
<path d="M300.874 199.861C300.694 199.861 300.508 199.829 300.332 199.765L290.225 195.98C289.409 195.672 288.989 194.75 289.289 193.915C289.588 193.086 290.499 192.665 291.312 192.964L301.416 196.745C302.235 197.053 302.651 197.975 302.352 198.81C302.119 199.459 301.517 199.861 300.874 199.861Z" fill="#FFFCF6"/>
<path d="M418.729 192.561C418.058 192.561 417.434 192.121 417.226 191.433C416.965 190.588 417.428 189.686 418.26 189.419L432.073 185.024C432.898 184.754 433.787 185.233 434.046 186.078C434.307 186.926 433.844 187.826 433.012 188.092L419.199 192.49C419.045 192.538 418.884 192.561 418.729 192.561Z" fill="#FFFCF6"/>
<path d="M352.253 119.306C352.253 119.306 352.281 151.343 371.004 157.129C389.724 162.918 437.882 160.364 437.393 152.535C432.984 81.8516 400.389 85.4078 373.166 76.3616C325.424 60.5017 286.377 139.962 292.223 158.742C298.069 177.518 338.364 159.985 346.99 157.344C355.612 154.7 350.835 132.93 352.253 119.306Z" fill="#000C3E"/>
<g opacity="0.210007">
<g opacity="0.210007">
<path opacity="0.210007" d="M303.972 227.51C303.972 227.51 346.445 202.53 365.086 206.022C383.727 209.517 416.442 210.063 417.924 216.88C419.408 223.694 376.447 220.623 363.233 221.933C350.019 223.244 299.289 238.75 303.972 227.51Z" fill="#DB5C5D"/>
</g>
</g>
<path d="M327.742 210.794C327.121 210.794 326.532 210.418 326.283 209.792C325.955 208.973 326.343 208.035 327.149 207.701C331.42 205.927 332.211 204.53 332.217 204.517C332.497 203.676 333.361 203.284 334.193 203.582C335.015 203.868 335.428 204.845 335.148 205.687C334.949 206.278 333.875 208.379 328.334 210.675C328.139 210.756 327.94 210.794 327.742 210.794Z" fill="#DB5C5D"/>
<path d="M392.63 207.394C391.36 207.394 389.217 207.002 385.851 205.328C385.067 204.943 384.742 203.982 385.123 203.182C385.502 202.386 386.45 202.058 387.229 202.443C391.379 204.503 392.923 204.159 392.942 204.159C393.746 203.815 394.603 204.217 394.943 205.033C395.284 205.849 394.849 206.812 394.045 207.162C393.837 207.252 393.39 207.394 392.63 207.394Z" fill="#DB5C5D"/>
<path d="M351.628 204.721C350.83 204.721 350.143 204.108 350.061 203.279C349.973 202.395 350.604 201.605 351.47 201.518L368.381 199.758C369.229 199.649 370.02 200.307 370.108 201.191C370.196 202.074 369.566 202.864 368.699 202.951L351.788 204.712C351.735 204.718 351.681 204.721 351.628 204.721Z" fill="#FFFCF6"/>
<path d="M328.212 63.3946C327.982 63.3946 327.746 63.3432 327.525 63.2308C318.584 58.8008 313.176 52.4819 311.443 44.4476C307.598 26.6088 323.233 6.87153 323.901 6.03951C324.455 5.35204 325.445 5.25246 326.116 5.81463C326.791 6.37681 326.891 7.38552 326.34 8.07299C326.186 8.26574 311.002 27.4537 314.522 43.7665C316.038 50.7889 320.875 56.3658 328.902 60.346C329.684 60.7315 330.011 61.6952 329.63 62.4919C329.359 63.0605 328.798 63.3946 328.212 63.3946Z" fill="#000C3E"/>
<path d="M364.196 68.1688C363.758 68.1688 363.323 67.9824 363.011 67.6226C362.438 66.9545 362.501 65.9425 363.156 65.3547C363.339 65.1908 381.41 48.8105 380.565 32.1283C380.203 24.9484 376.33 18.636 369.053 13.3644C368.344 12.8536 368.177 11.8513 368.681 11.1253C369.185 10.4057 370.168 10.2354 370.877 10.7494C378.98 16.6153 383.301 23.7566 383.713 31.9741C384.627 50.2112 366.027 67.0605 365.233 67.7704C364.934 68.0371 364.565 68.1688 364.196 68.1688Z" fill="#000C3E"/>
<path d="M457.927 279.072C457.47 279.072 457.016 278.873 456.704 278.478C456.156 277.794 456.257 276.782 456.931 276.22C457.139 276.046 477.866 258.4 471.863 230.484C469.55 219.722 465.494 207.881 461.198 195.346C453.751 173.607 446.049 151.127 445.422 129.333C445.397 128.444 446.084 127.708 446.953 127.679C447.77 127.708 448.548 128.35 448.573 129.237C449.188 150.536 456.805 172.779 464.173 194.286C468.5 206.917 472.588 218.845 474.942 229.793C481.368 259.685 459.147 278.526 458.92 278.712C458.627 278.953 458.277 279.072 457.927 279.072Z" fill="#000C3E"/>
<path d="M463.524 164.346C463.474 164.346 463.42 164.342 463.366 164.339C462.503 164.252 461.869 163.465 461.955 162.582C464.677 134.476 458.876 111.665 444.716 94.7704C421.915 67.577 384.872 65.0809 384.504 65.0584C383.634 65.007 382.969 64.2489 383.022 63.359C383.07 62.4756 383.817 61.7753 384.683 61.8524C385.071 61.8749 423.45 64.4577 447.111 92.6823C461.851 110.267 467.901 133.892 465.09 162.897C465.012 163.729 464.324 164.346 463.524 164.346Z" fill="#000C3E"/>
<path d="M350.663 251.953C350.663 251.953 366.367 240.722 380.391 250.35C380.391 250.35 364.016 256.604 350.663 251.953Z" fill="#DB5C5D"/>
<path d="M361.054 263.483C359.503 263.483 358.17 263.467 357.348 263.454C356.478 263.441 355.785 262.712 355.797 261.822C355.81 260.935 356.406 260.216 357.398 260.242C363.348 260.322 370.458 260.174 371.564 259.747C372.374 259.432 373.288 259.843 373.6 260.669C373.912 261.498 373.515 262.42 372.705 262.741C371.129 263.364 365.28 263.483 361.054 263.483Z" fill="#DB5C5D"/>
<path d="M284.623 219.525C284.481 219.525 284.339 219.506 284.198 219.464C283.359 219.227 282.871 218.343 283.104 217.485C287.415 201.735 275.969 191.593 275.852 191.49C275.191 190.919 275.109 189.903 275.673 189.226C276.234 188.551 277.23 188.467 277.895 189.046C278.43 189.508 290.989 200.639 286.139 218.353C285.944 219.06 285.313 219.525 284.623 219.525Z" fill="#DB5C5D"/>
<path d="M431.652 223.362C431.617 223.362 431.586 223.362 431.548 223.359C430.681 223.301 430.022 222.536 430.076 221.653C431.255 203.011 440.019 193.046 440.394 192.631C440.98 191.976 441.976 191.931 442.616 192.529C443.259 193.126 443.303 194.141 442.72 194.797C442.635 194.893 434.324 204.412 433.224 221.858C433.168 222.71 432.474 223.362 431.652 223.362Z" fill="#DB5C5D"/>
<path d="M400.008 275.801C400.008 275.801 405.019 332.941 398.369 341.977C391.72 351.017 349.603 344.236 338.519 341.977C327.436 339.719 327.413 245.215 329.651 251.598C348.157 304.318 398.732 257.664 400.008 275.801Z" fill="#FFCEB0"/>
<path d="M333.659 281.453C333.659 281.453 363.538 296.092 397.505 278.372C397.505 278.372 400.146 299.658 397.505 304.566C394.867 309.475 341.062 312.983 330.469 288.79C330.469 288.79 330.602 280.402 333.659 281.453Z" fill="#F5A473"/>
<path d="M170.487 729.07H557.15C557.15 729.07 576.9 386.392 528.465 349.127C480.026 311.86 266.8 330.476 216.6 362.308C166.4 394.14 170.487 729.07 170.487 729.07Z" fill="#FB4C47"/>
<path d="M363.538 335.206C363.538 335.206 348.635 466.929 355.14 485.262C361.641 503.596 353.312 584.881 350.665 595.446C348.014 606.012 267.68 610.5 246.949 602.048C226.219 593.596 252.231 365.766 263.835 323.615C275.442 281.461 362.262 306.297 363.538 335.206Z" fill="#05BA6E"/>
<path d="M127.619 173.817C127.619 173.817 159.938 236.913 182.587 237.498C205.24 238.082 281.626 143.26 309.791 142.284C337.959 141.31 362.146 144.096 362.257 137.253C362.367 130.407 323.081 122.935 323.081 122.935C323.081 122.935 379.896 126.623 368.144 120.288C356.395 113.953 328.24 108.258 328.24 108.258C328.24 108.258 369.073 109.938 369.37 105.485C369.666 101.033 326.856 94.4761 326.856 94.4761C326.856 94.4761 378.95 92.78 369.423 85.4749C359.893 78.1697 341.958 81.3404 293.447 88.8929C244.933 96.4454 135.18 162.464 127.619 173.817Z" fill="#FFCEB0"/>
<path d="M184.32 170.795C184.32 170.795 236.02 202.187 213.509 237.761C189.538 275.643 190.881 264.389 186.737 279.716C182.589 295.042 250.907 324.893 254.015 338.012C257.122 351.129 224.917 512.455 194.751 505.834C168.493 500.074 22.5727 415.664 1.6027 331.311C-14.6527 265.915 117.845 105.958 184.32 170.795Z" fill="#FB4C47"/>
<path d="M319.652 538.773C319.652 538.773 262.368 667.406 283.429 684.631C304.49 701.853 321.461 690.632 340.086 701.811C358.715 712.991 376.584 707.401 391.547 697.674C406.51 687.943 367.567 559.969 351.46 547.784C335.353 535.596 322.555 532.088 319.652 538.773Z" fill="white"/>
<path d="M509.981 339.974C509.981 339.974 540.784 343.806 564.962 388.942C583.102 422.806 618.245 620.687 564.962 648.882C511.68 677.074 461.704 662.327 442.365 643.327C423.023 624.328 457.435 526.411 480.372 519.102C503.312 511.795 509.981 339.974 509.981 339.974Z" fill="#FB4C47"/>
<path d="M519.955 336.941C519.955 336.941 521.395 327.792 477.038 308.225C441.641 292.609 411.32 318.964 357.326 321.801C303.331 324.64 308.204 302.825 270.011 312.963C211.072 328.604 257.997 367.986 276.988 372.406C295.979 376.827 359.604 485.854 519.955 336.941Z" fill="#05BA6E"/>
<path d="M365.15 226.994C365.15 226.994 364.986 230.72 367.085 231.058C369.184 231.395 373.063 230.2 372.064 225.179C372.064 225.179 366.801 226.904 365.15 226.994Z" fill="white"/>
<path d="M583.786 535.663C583.638 535.663 583.487 535.654 583.335 535.631C581.879 535.419 580.801 534.224 580.647 532.801C578.022 529.707 560.396 523.228 548.637 518.904C525.342 510.336 514.894 506.099 512.647 501.464C510.741 497.535 511.595 491.868 512.676 484.695C514.387 473.342 516.521 459.207 509.449 445.593C497.237 422.081 498.4 387.206 498.456 385.735C498.526 383.962 500.029 382.542 501.724 382.648C503.464 382.715 504.819 384.209 504.756 385.979C504.74 386.326 503.606 420.616 515.02 442.586C523.066 458.083 520.662 474.026 518.906 485.668C518.065 491.242 517.274 496.507 518.298 498.617C520.208 501.621 538.603 508.386 550.774 512.861C578.205 522.948 587.728 527.006 586.9 532.907C586.676 534.51 585.327 535.663 583.786 535.663Z" fill="#B31B1F"/>
<path d="M501.561 509.251C501.287 509.251 501.009 509.216 500.729 509.139C490.316 506.244 474.14 503.231 473.979 503.199C472.265 502.884 471.13 501.21 471.442 499.466C471.754 497.718 473.39 496.543 475.107 496.88C475.779 497.002 491.709 499.97 502.387 502.939C504.066 503.408 505.056 505.171 504.599 506.883C504.218 508.313 502.948 509.251 501.561 509.251Z" fill="#B31B1F"/>
<path d="M558.171 668.151C558.121 668.151 558.073 668.151 558.026 668.148C499.692 665.453 441.572 640.123 438.43 616.029C437.444 608.458 436.732 604.67 436.29 602.797C435.112 602.2 434.396 600.921 434.607 599.524C435.008 596.877 436.766 595.939 438.162 595.939H438.197C441.371 595.974 442.423 597.869 444.68 615.185C447.119 633.887 500.032 659.038 558.31 661.73C560.049 661.81 561.395 663.31 561.316 665.084C561.241 666.809 559.844 668.151 558.171 668.151Z" fill="#B31B1F"/>
<path d="M453.598 611.294C453.368 611.294 453.135 611.268 452.899 611.217C451.203 610.825 450.138 609.103 450.522 607.371C450.658 606.751 464.442 544.815 477.326 500.262C477.817 498.559 479.582 497.583 481.24 498.09C482.91 498.591 483.865 500.378 483.37 502.08C470.544 546.435 456.806 608.171 456.671 608.791C456.337 610.282 455.038 611.294 453.598 611.294Z" fill="#B31B1F"/>
<path d="M180.146 476.776C179.992 476.776 179.831 476.763 179.673 476.741C177.953 476.478 176.768 474.839 177.026 473.088C177.351 470.872 185.132 418.525 195.809 394.03C206.19 370.226 211.503 346.091 211.557 345.85C211.929 344.118 213.609 343.036 215.317 343.408C217.015 343.794 218.087 345.512 217.709 347.244C217.491 348.253 212.203 372.25 201.57 396.642C191.239 420.34 183.336 473.506 183.257 474.039C183.024 475.636 181.678 476.776 180.146 476.776Z" fill="#B31B1F"/>
<path d="M132.104 294.011C123.715 294.011 114.314 293.491 103.965 292.148C102.238 291.923 101.015 290.317 101.236 288.557C101.453 286.796 103.07 285.572 104.759 285.775C136.274 289.867 158.662 286.099 170.203 283.532C164.454 281.66 156.402 279.835 148.366 280.281C130.283 281.149 103.823 264.682 102.704 263.975C101.223 263.043 100.766 261.065 101.68 259.555C102.594 258.045 104.538 257.573 106.016 258.511C106.275 258.671 131.959 274.666 148.041 273.863C163.361 273.041 181.504 279.995 183.152 282.98C183.741 284.043 183.694 285.425 183.023 286.436C182.399 287.371 181.107 287.933 179.972 287.863C179.474 287.921 177.999 288.28 176.566 288.627C169.673 290.311 154.483 294.008 132.104 294.011Z" fill="#B31B1F"/>
<path d="M209.572 224.968C208.399 224.968 207.274 224.3 206.732 223.156C206.653 222.992 198.784 206.699 185.384 200.242C170.172 192.908 152.968 167.346 152.243 166.264C151.263 164.796 151.635 162.794 153.072 161.798C154.515 160.802 156.472 161.185 157.449 162.643C157.619 162.894 174.414 187.842 188.082 194.43C203.524 201.88 212.052 219.61 212.408 220.358C213.164 221.958 212.506 223.873 210.939 224.643C210.498 224.865 210.032 224.968 209.572 224.968Z" fill="#B31B1F"/>
<path d="M355.956 411.66C355.839 411.66 355.719 411.647 355.603 411.618C354.755 411.422 354.222 410.558 354.418 409.697C354.493 409.357 362.01 375.864 364.209 358.851C367.635 332.325 355.981 323.074 355.864 322.984C355.168 322.45 355.023 321.448 355.54 320.738C356.056 320.025 357.033 319.874 357.733 320.398C358.278 320.806 371.023 330.703 367.332 359.268C365.117 376.436 357.566 410.076 357.49 410.411C357.323 411.159 356.674 411.66 355.956 411.66Z" fill="#08824F"/>
<path d="M263.013 363.354L259.884 362.985C259.884 362.985 262.329 341.298 263.606 330.635C264.895 319.88 267.904 312.536 268.033 312.228C268.371 311.406 269.297 311.033 270.098 311.37C270.898 311.717 271.273 312.662 270.936 313.478C270.904 313.548 267.964 320.744 266.735 331.027C265.459 341.68 263.013 363.351 263.013 363.354Z" fill="#08824F"/>
<path d="M352.5 719.488C334.527 719.488 324.644 718.884 310.966 718.049C293.371 716.973 269.278 715.502 212.974 714.609C211.234 714.583 209.844 713.124 209.873 711.348C209.901 709.575 211.433 708.097 213.071 708.184C269.515 709.077 293.69 710.558 311.341 711.637C324.911 712.463 334.713 713.063 352.5 713.063C374.765 713.063 394.739 710.577 414.058 708.174C431.016 706.06 447.032 704.068 464.198 703.68C500.815 702.857 528.179 703.677 528.45 703.68C530.19 703.738 531.558 705.219 531.504 706.989C531.45 708.762 529.982 710.076 528.261 710.105C527.99 710.095 500.78 709.273 464.339 710.105C447.485 710.484 431.618 712.459 414.82 714.551C395.316 716.979 375.149 719.488 352.5 719.488Z" fill="#B31B1F"/>
<path d="M495.265 676.625C493.698 676.625 492.129 675.909 490.761 673.801C486.504 667.245 485.218 666.705 476.986 667.996C469.539 669.182 466.599 663.801 464.651 660.245C464.002 659.056 463.384 657.935 462.845 657.501C461.396 656.335 457.775 657.736 456.243 658.597L454.714 655.789C455.383 655.41 461.32 652.182 464.799 654.98C465.83 655.812 466.558 657.142 467.402 658.677C469.284 662.105 471.231 665.635 476.504 664.823C485.927 663.338 488.445 664.421 493.39 672.028C494.701 674.052 495.835 673.776 499.33 671.697C501.984 670.11 506.008 667.717 509.008 671.99L506.449 673.859C505.28 672.205 504.221 672.504 500.918 674.47C499.34 675.411 497.304 676.625 495.265 676.625Z" fill="white"/>
<path d="M458.597 525.331C458.597 525.331 383.321 497.585 350.662 511.777C318.003 525.967 291.09 562.55 296.075 564.969C301.061 567.391 327.741 546.298 327.741 546.298C327.741 546.298 300.535 574.324 305.58 577.128C310.626 579.933 336.843 564.969 336.843 564.969C336.843 564.969 318.542 584.912 326.402 586.438C334.262 587.964 351.113 571.532 368.686 570.915C386.261 570.295 408.41 584.453 430.382 588.439C452.351 592.423 458.597 525.331 458.597 525.331Z" fill="#FFCEB0"/>
<path d="M572.201 510.948C572.006 510.948 571.81 510.929 571.612 510.891C571.391 510.852 549.223 506.579 522.723 501.086C521.018 500.733 519.915 499.037 520.261 497.299C520.605 495.561 522.266 494.436 523.977 494.793C550.434 500.273 572.563 504.536 572.784 504.581C574.495 504.909 575.617 506.589 575.293 508.333C575.009 509.875 573.685 510.948 572.201 510.948Z" fill="#B31B1F"/>
<path fill-rule="evenodd" clip-rule="evenodd" d="M361.812 6.05027C360.989 6.05027 360.095 6.14779 359.125 6.34283C356.763 6.82619 355.232 7.99643 354.313 10.0274C350.216 19.067 358.855 40.5977 365.028 53.3177C368.842 39.207 373.413 15.6199 366.954 8.18723C365.71 6.75835 364.017 6.05027 361.812 6.05027ZM365.164 63.8734C365.278 63.8975 365.393 63.9146 365.509 63.9245C365.838 64.0533 366.188 64.1198 366.542 64.1198C366.871 64.1198 367.2 64.0646 367.52 63.9459C371.729 62.3814 408.795 48.2113 413.412 31.8831C414.523 27.9569 413.741 24.0858 411.153 20.6938C406.753 14.9189 401.998 14.232 398.783 14.6687C389.659 15.909 380.679 27.9244 374.092 39.3389C376.422 26.3374 377.319 11.3234 371.234 4.32035C369.087 1.84844 365.044 -0.801558 358.006 0.627319C353.876 1.46684 350.802 3.87515 349.122 7.58515C342.9 21.3226 357.227 50.9177 361.985 60.059C355.972 61.2443 349.924 61.512 344.14 61.1112C331.689 60.2487 320.654 56.3023 314.065 51.9847L311.654 55.665C318.955 60.4493 330.738 64.5934 343.835 65.5007C350.687 65.9753 357.951 65.5676 365.164 63.8734ZM400.359 20.3885C400.089 20.3885 399.814 20.4055 399.54 20.4478C389.877 21.758 378.202 42.6484 372.029 55.8645C384.861 50.3568 405.214 39.8373 407.917 30.2719C408.525 28.118 408.117 26.2142 406.64 24.2723C404.652 21.6647 402.593 20.3885 400.359 20.3885Z" fill="#FFD310"/>
</svg>
