<svg width="627" height="234" viewBox="0 0 627 234" fill="none" xmlns="http://www.w3.org/2000/svg">
<path opacity="0.15" d="M158.054 91.0605C158.054 51.6742 126.73 19.7446 88.0915 19.7446C49.4525 19.7446 18.1289 51.6742 18.1289 91.0605C18.1289 130.447 49.4525 162.377 88.0915 162.377C126.73 162.377 158.054 130.447 158.054 91.0605Z" fill="#FF383D"/>
<path d="M57.6569 76.7824H53.3922V88.5558H50.8141V76.7824H46.5065V74.4514H57.6569V76.7824ZM59.569 74.4514H62.1471V80.3058L68.3991 80.3273V74.4514H70.9879V88.5558H68.3991V82.551H62.1471V88.5558H59.569V74.4514ZM74.028 74.4514H79.6246C81.3434 74.4514 82.6468 74.8345 83.5348 75.6008C84.43 76.3599 84.8776 77.4448 84.8776 78.8557C84.8776 79.8368 84.6484 80.6747 84.1901 81.3693C83.7389 82.0568 83.1015 82.5545 82.278 82.8625L84.9635 88.5558H82.0846L79.7106 83.3029H76.6061V88.5558H74.028V74.4514ZM79.6246 81.0578C80.4625 81.0578 81.0963 80.8573 81.526 80.4562C81.9557 80.048 82.1705 79.5217 82.1705 78.8771C82.1705 78.2326 81.9521 77.7134 81.5153 77.3195C81.0856 76.9185 80.4554 76.718 79.6246 76.718H76.6061V81.0578H79.6246ZM101.324 81.4982C101.324 82.9162 101.002 84.1838 100.357 85.301C99.7125 86.4182 98.8209 87.2883 97.6823 87.9113C96.5508 88.5344 95.2796 88.8459 93.8688 88.8459C92.458 88.8459 91.1868 88.5379 90.0553 87.9221C88.931 87.3062 88.0501 86.4396 87.4127 85.3224C86.7754 84.2053 86.4567 82.9377 86.4567 81.5197C86.4567 80.0946 86.7754 78.827 87.4127 77.717C88.0501 76.5998 88.931 75.7297 90.0553 75.1066C91.1868 74.4836 92.4651 74.1721 93.8903 74.1721C95.3011 74.1721 96.5687 74.4836 97.693 75.1066C98.8245 75.7297 99.7125 76.5962 100.357 77.7062C101.002 78.8091 101.324 80.0731 101.324 81.4982ZM98.5954 81.4982C98.5954 80.5386 98.3948 79.6864 97.9938 78.9416C97.5927 78.1968 97.0306 77.6167 96.3073 77.2014C95.5911 76.7788 94.7855 76.5676 93.8903 76.5676C92.9808 76.5676 92.1644 76.7788 91.4411 77.2014C90.7249 77.6167 90.1627 78.1968 89.7545 78.9416C89.3463 79.6864 89.1422 80.5458 89.1422 81.5197C89.1422 82.4722 89.3463 83.3244 89.7545 84.0764C90.1627 84.8211 90.7249 85.4012 91.4411 85.8166C92.1644 86.232 92.9808 86.4396 93.8903 86.4396C94.7855 86.4396 95.5911 86.232 96.3073 85.8166C97.0306 85.4012 97.5927 84.8211 97.9938 84.0764C98.3948 83.3244 98.5954 82.465 98.5954 81.4982ZM106.91 74.4514H109.531L114.762 88.5558H112.034L110.895 85.3439H105.503L104.31 88.5558H101.646L106.91 74.4514ZM110.143 83.2062L109.241 80.7248C109.155 80.4885 108.919 79.7902 108.532 78.6301L108.231 77.7492C108.174 77.9426 108.038 78.3472 107.823 78.9631C107.608 79.579 107.39 80.1662 107.168 80.7248L106.244 83.2062H110.143ZM125.161 76.7824H120.896V88.5558H118.318V76.7824H114.01V74.4514H125.161V76.7824ZM73.1364 103.451C74.6188 103.451 75.7825 103.87 76.6276 104.708C77.4798 105.546 77.9059 106.667 77.9059 108.07C77.9059 108.98 77.7125 109.786 77.3258 110.487C76.9391 111.182 76.3805 111.726 75.65 112.12C74.9267 112.514 74.0745 112.711 73.0934 112.711H69.9245V117.556H67.3463V103.451H73.1364ZM72.61 110.498C73.4765 110.498 74.1246 110.265 74.5543 109.8C74.9912 109.327 75.2096 108.737 75.2096 108.028C75.2096 107.383 74.9912 106.839 74.5543 106.395C74.1246 105.944 73.498 105.718 72.6745 105.718H69.9245V110.498H72.61ZM82.8258 103.451H85.4469L90.6784 117.556H87.9498L86.8112 114.344H81.4186L80.2262 117.556H77.5621L82.8258 103.451ZM86.0592 112.206L85.1569 109.725C85.0709 109.488 84.8346 108.79 84.4479 107.63L84.1471 106.749C84.0898 106.943 83.9538 107.347 83.7389 107.963C83.5241 108.579 83.3056 109.166 83.0836 109.725L82.1598 112.206H86.0592ZM92.483 117.556V103.451H95.0612V117.556H92.483ZM109.552 103.451V117.556H107.135L100.647 107.899V117.556H98.0905V103.451H100.518L107.006 113.13V103.451H109.552Z" fill="#FF383D"/>
<path d="M89.4175 1.8673C41.1089 1.8673 1.94702 41.7867 1.94702 91.0326C1.94702 140.276 41.1089 180.195 89.4175 180.195V224.23" stroke="#FFD6D7" stroke-width="2.4" stroke-miterlimit="10"/>
<path d="M96.8066 226.535C96.8066 222.484 93.5869 219.202 89.6134 219.202C85.6425 219.202 82.4202 222.484 82.4202 226.535C82.4202 230.585 85.6425 233.867 89.6134 233.867C93.5869 233.867 96.8066 230.585 96.8066 226.535Z" fill="#F2AEB0"/>
<path d="M189 105.907H390.128C397.627 105.907 404.695 102.402 409.234 96.4324L451.432 40.9296C455.97 34.9602 463.038 31.4551 470.537 31.4551H626.016" stroke="#FFB2B1" stroke-width="5" stroke-linejoin="round"/>
<path d="M199.152 106.427C199.152 111.512 195.109 115.634 190.121 115.634C185.132 115.634 181.089 111.512 181.089 106.427C181.089 101.343 185.132 97.2209 190.121 97.2209C195.109 97.2209 199.152 101.343 199.152 106.427Z" fill="#FF383D"/>
</svg>
