<svg width="58" height="52" viewBox="0 0 58 52" fill="none" xmlns="http://www.w3.org/2000/svg">
<path d="M41.1482 26.2709C41.1482 27.1273 41.9234 27.8217 42.8798 27.8217H46.8179C48.8227 27.8217 50.8032 28.2332 52.5931 29.042C53.1267 29.2832 53.7396 29.4041 54.3876 29.3653C56.1042 29.2627 57.496 28.0123 57.6056 26.4745C57.7342 24.6692 56.1377 23.1694 54.1497 23.1694C53.6111 23.1694 53.1014 23.2795 52.647 23.476C50.8232 24.2646 48.8425 24.7202 46.8172 24.7202H42.8798C41.9235 24.7201 41.1482 25.4145 41.1482 26.2709Z" fill="#FB4C47"/>
<path d="M17.6835 36.3394C17.1244 35.8387 16.218 35.8387 15.659 36.3394L13.3567 38.4013C12.1847 39.4509 10.7582 40.2472 9.18395 40.7115C8.71455 40.8499 8.27731 41.1001 7.92389 41.462C6.98733 42.4208 6.9899 43.8804 7.9296 44.8368C9.03279 45.9596 10.9451 46.0005 12.1074 44.9596C12.4221 44.6777 12.6483 44.3465 12.7857 43.9937C13.3372 42.5778 14.1978 41.2745 15.3817 40.2142L17.6836 38.1527C18.2425 37.6518 18.2425 36.84 17.6835 36.3394Z" fill="#FB4C47"/>
<path d="M38.45 17.743C39.0351 18.2669 39.9835 18.2669 40.5685 17.743L42.9777 15.5854C44.2042 14.4871 45.6969 13.6538 47.3442 13.1679C47.8353 13.023 48.293 12.7612 48.6627 12.3825C49.6428 11.3792 49.6401 9.85176 48.6567 8.85102C47.5023 7.67616 45.5011 7.63331 44.285 8.72247C43.9555 9.01751 43.719 9.36413 43.5751 9.73324C42.998 11.2149 42.0975 12.5787 40.8587 13.6883L38.4499 15.8456C37.865 16.3696 37.865 17.219 38.45 17.743Z" fill="#FB4C47"/>
<path d="M28.9256 37.2166C27.9693 37.2166 27.194 37.9108 27.194 38.7673V42.2942C27.194 44.0897 26.7344 45.8634 25.8314 47.4664C25.5621 47.9443 25.4271 48.4932 25.4704 49.0735C25.585 50.6109 26.9812 51.8573 28.6982 51.9555C30.714 52.0707 32.3887 50.6409 32.3887 48.8604C32.3887 48.3781 32.2657 47.9216 32.0463 47.5147C31.1658 45.8813 30.6571 44.1074 30.6571 42.2936V38.7673C30.6572 37.9109 29.8819 37.2166 28.9256 37.2166Z" fill="#FFA2A1"/>
<path d="M32.0487 47.5148C31.1682 45.8814 30.6595 44.1075 30.6595 42.2937V38.7673C30.6595 37.9109 29.8843 37.2166 28.9279 37.2166C27.9715 37.2166 27.1963 37.9108 27.1963 38.7673V42.2937C27.1963 44.1075 27.705 45.8813 28.5856 47.5148C28.805 47.9217 28.9279 48.3782 28.9279 48.8605C28.9279 50.0076 28.2322 51.0083 27.1988 51.5449C27.6471 51.7785 28.1577 51.9246 28.7006 51.9556C30.7164 52.0708 32.3911 50.641 32.3911 48.8605C32.3911 48.3782 32.2681 47.9217 32.0487 47.5148Z" fill="#FB4C47"/>
<path d="M16.0034 19.8665C19.1273 19.8665 21.6598 17.5984 21.6598 14.8007C21.6598 12.0029 19.1273 9.73486 16.0034 9.73486C12.8794 9.73486 10.3469 12.0029 10.3469 14.8007C10.3469 17.5984 12.8794 19.8665 16.0034 19.8665Z" fill="#FF807E"/>
<path d="M16.0021 9.73486C15.398 9.73486 14.8164 9.82057 14.2705 9.97762C16.5472 10.6327 18.1954 12.544 18.1954 14.8007C18.1954 17.0574 16.5472 18.9686 14.2705 19.6237C14.8163 19.7808 15.3979 19.8665 16.0021 19.8665C19.1261 19.8665 21.6585 17.5985 21.6585 14.8007C21.6585 12.0029 19.126 9.73486 16.0021 9.73486Z" fill="#FB4C47"/>
<path d="M28.9268 42.8125C39.1275 42.8125 47.3967 35.4067 47.3967 26.2711C47.3967 17.1356 39.1275 9.72974 28.9268 9.72974C18.7261 9.72974 10.4568 17.1356 10.4568 26.2711C10.4568 35.4067 18.7261 42.8125 28.9268 42.8125Z" fill="#FFBFBE"/>
<path d="M28.9279 9.72974C28.3438 9.72974 27.7665 9.75513 27.1963 9.80269C36.5848 10.5847 43.9348 17.6587 43.9348 26.2711C43.9348 34.8836 36.585 41.9576 27.1964 42.7396C27.7665 42.787 28.344 42.8125 28.928 42.8125C39.1287 42.8125 47.398 35.4067 47.398 26.2711C47.398 17.1355 39.1286 9.72974 28.9279 9.72974Z" fill="#FFA2A2"/>
<path d="M35.8514 23.9768C37.9234 23.9768 39.6031 22.4725 39.6031 20.6168C39.6031 18.7612 37.9234 17.2568 35.8514 17.2568C33.7793 17.2568 32.0996 18.7612 32.0996 20.6168C32.0996 22.4725 33.7793 23.9768 35.8514 23.9768Z" fill="#FFA2A1"/>
<path d="M35.8539 17.2568C35.2291 17.2568 34.6405 17.3944 34.1223 17.6364C35.3225 18.1969 36.1425 19.3207 36.1425 20.6168C36.1425 21.9129 35.3225 23.0369 34.1223 23.5973C34.6405 23.8392 35.2291 23.9768 35.8539 23.9768C37.9259 23.9768 39.6057 22.4725 39.6057 20.6168C39.6057 18.7612 37.9259 17.2568 35.8539 17.2568Z" fill="#FF807E"/>
<path d="M22.3226 35.0074C23.7252 35.0074 24.8622 33.9891 24.8622 32.7329C24.8622 31.4768 23.7252 30.4585 22.3226 30.4585C20.92 30.4585 19.783 31.4768 19.783 32.7329C19.783 33.9891 20.92 35.0074 22.3226 35.0074Z" fill="#FF807E"/>
<path d="M41.4914 41.6404C43.404 41.6404 44.9545 40.2519 44.9545 38.539C44.9545 36.8261 43.404 35.4375 41.4914 35.4375C39.5788 35.4375 38.0283 36.8261 38.0283 38.539C38.0283 40.2519 39.5788 41.6404 41.4914 41.6404Z" fill="#FB4C47"/>
<path d="M41.4921 35.4375C40.8611 35.4375 40.27 35.5894 39.7605 35.8535C40.7953 36.3898 41.4921 37.3912 41.4921 38.5391C41.4921 39.6869 40.7953 40.6883 39.7605 41.2247C40.27 41.4887 40.8611 41.6406 41.4921 41.6406C43.4048 41.6406 44.9552 40.252 44.9552 38.5392C44.9552 36.8263 43.4048 35.4375 41.4921 35.4375Z" fill="#FF807E"/>
<path d="M16.7039 26.2719C16.7039 27.1283 15.9287 27.8227 14.9723 27.8227H11.0342C9.02942 27.8227 7.04884 28.2342 5.25898 29.043C4.72538 29.2841 4.11243 29.4051 3.46453 29.3663C1.74784 29.2637 0.356113 28.0132 0.246523 26.4755C0.117883 24.6702 1.71434 23.1704 3.70242 23.1704C4.24096 23.1704 4.7507 23.2805 5.20508 23.477C7.0289 24.2656 9.00959 24.7212 11.0349 24.7212H14.9724C15.9286 24.7211 16.7039 25.4154 16.7039 26.2719Z" fill="#FB4C47"/>
<path d="M28.9255 15.3257C29.8818 15.3257 30.6571 14.6315 30.6571 13.775V10.2481C30.6571 8.45264 31.1166 6.67887 32.0197 5.0759C32.2889 4.59801 32.424 4.04907 32.3807 3.46882C32.2661 1.93138 30.8699 0.684976 29.1528 0.586829C27.1371 0.471621 25.4624 1.90138 25.4624 3.68187C25.4624 4.16418 25.5853 4.62069 25.8047 5.02763C26.6853 6.661 27.194 8.43488 27.194 10.2487V13.7751C27.1939 14.6314 27.9692 15.3257 28.9255 15.3257Z" fill="#FFA2A1"/>
<path d="M32.3818 3.46881C32.2672 1.93137 30.871 0.684968 29.1539 0.586821C28.4368 0.545775 27.7634 0.701125 27.1926 0.997472C28.1624 1.50256 28.8402 2.41749 28.9186 3.46881C28.9619 4.04906 28.8268 4.598 28.5576 5.07589C27.6545 6.67886 27.195 8.45263 27.195 10.2481V13.7749C27.195 14.6314 27.9702 15.3257 28.9266 15.3257C29.883 15.3257 30.6582 14.6315 30.6582 13.7749V10.2481C30.6582 8.45263 31.1177 6.67886 32.0208 5.07589C32.29 4.598 32.4252 4.04906 32.3818 3.46881Z" fill="#FB4C47"/>
<path d="M54.1536 23.1714C53.6154 23.1714 53.106 23.2814 52.6518 23.4778C52.5715 23.5125 52.4903 23.5458 52.4094 23.5792C53.5123 24.1446 54.2345 25.2378 54.1463 26.4746C54.0709 27.5323 53.3885 28.4539 52.411 28.9593C52.4733 28.9862 52.5359 29.0126 52.5978 29.0405C53.1312 29.2815 53.7437 29.4024 54.3912 29.3637C56.1069 29.261 57.4978 28.0114 57.6073 26.4746C57.736 24.6703 56.1404 23.1714 54.1536 23.1714Z" fill="#FF807E"/>
</svg>
