<svg width="482" height="234" viewBox="0 0 482 234" fill="none" xmlns="http://www.w3.org/2000/svg">
<path opacity="0.15" d="M481.274 89.4153C481.274 50.0289 449.95 18.0993 411.311 18.0993C372.672 18.0993 341.351 50.0289 341.351 89.4153C341.351 128.802 372.672 160.731 411.311 160.731C449.95 160.731 481.274 128.802 481.274 89.4153Z" fill="#FF383D"/>
<path d="M359.041 85.8448H361.619V91.6993L367.871 91.7208V85.8448H370.46V99.9493H367.871V93.9444H361.619V99.9493H359.041V85.8448ZM376.078 88.1973V91.7208H381.868V93.9659H376.078V97.5967H382.524V99.9493H373.5V85.8448H382.524V88.1973H376.078ZM389.13 85.8448H391.751L396.983 99.9493H394.254L393.115 96.7374H387.723L386.531 99.9493H383.866L389.13 85.8448ZM392.364 94.5997L391.461 92.1182C391.375 91.8819 391.139 91.1837 390.752 90.0235L390.451 89.1426C390.394 89.336 390.258 89.7406 390.043 90.3565C389.828 90.9724 389.61 91.5596 389.388 92.1182L388.464 94.5997H392.364ZM404.03 85.8448C405.405 85.8448 406.629 86.1456 407.703 86.7471C408.785 87.3487 409.626 88.1902 410.228 89.2715C410.829 90.3458 411.13 91.5668 411.13 92.9346C411.13 94.2953 410.833 95.5092 410.239 96.5762C409.644 97.6361 408.806 98.4633 407.725 99.0577C406.651 99.6521 405.419 99.9493 404.03 99.9493H398.787V85.8448H404.03ZM403.804 97.5967C404.728 97.5967 405.537 97.4034 406.232 97.0167C406.934 96.6228 407.474 96.0749 407.854 95.3731C408.233 94.6713 408.423 93.8585 408.423 92.9346C408.423 91.9965 408.233 91.1729 407.854 90.4639C407.474 89.7478 406.934 89.1928 406.232 88.7989C405.537 88.3978 404.728 88.1973 403.804 88.1973H401.365V97.5967H403.804ZM416.716 85.8448H419.337L424.569 99.9493H421.84L420.701 96.7374H415.309L414.116 99.9493H411.452L416.716 85.8448ZM419.949 94.5997L419.047 92.1182C418.961 91.8819 418.725 91.1837 418.338 90.0235L418.037 89.1426C417.98 89.336 417.844 89.7406 417.629 90.3565C417.414 90.9724 417.196 91.5596 416.974 92.1182L416.05 94.5997H419.949ZM432.185 100.239C430.774 100.239 429.517 99.935 428.414 99.3262C427.319 98.7175 426.463 97.8546 425.847 96.7374C425.231 95.6202 424.923 94.3383 424.923 92.8917C424.923 91.4522 425.227 90.1775 425.836 89.0674C426.445 87.9503 427.297 87.0873 428.393 86.4786C429.496 85.8699 430.76 85.5655 432.185 85.5655C433.359 85.5655 434.434 85.766 435.407 86.1671C436.381 86.5681 437.187 87.1482 437.824 87.9073C438.462 88.6592 438.87 89.5329 439.049 90.5284H436.181C435.959 89.7693 435.486 89.1498 434.763 88.67C434.04 88.183 433.173 87.9395 432.163 87.9395C431.254 87.9395 430.452 88.1436 429.757 88.5518C429.07 88.96 428.54 89.5437 428.167 90.3028C427.795 91.0547 427.609 91.9249 427.609 92.9131C427.609 93.9086 427.798 94.7823 428.178 95.5342C428.558 96.279 429.091 96.8484 429.779 97.2422C430.473 97.6361 431.268 97.8331 432.163 97.8331C433.144 97.8331 434 97.5967 434.731 97.1241C435.468 96.6443 435.952 96.0105 436.181 95.2227H439.049C438.884 96.2038 438.487 97.0775 437.857 97.8438C437.226 98.6029 436.424 99.1937 435.45 99.6163C434.476 100.032 433.388 100.239 432.185 100.239ZM441.391 85.8448H443.969V91.6993L450.221 91.7208V85.8448H452.81V99.9493H450.221V93.9444H443.969V99.9493H441.391V85.8448ZM458.428 88.1973V91.7208H464.218V93.9659H458.428V97.5967H464.873V99.9493H455.85V85.8448H464.873V88.1973H458.428Z" fill="#FF383D"/>
<path d="M411.807 1.86186C363.499 1.86186 324.337 41.7813 324.337 91.0244C324.337 140.268 363.499 180.19 411.807 180.19V224.222" stroke="#FFD6D7" stroke-width="2.4" stroke-miterlimit="10"/>
<path d="M419.001 226.447C419.001 222.396 415.781 219.114 411.807 219.114C407.834 219.114 404.614 222.396 404.614 226.447C404.614 230.497 407.834 233.779 411.807 233.779C415.781 233.779 419.001 230.497 419.001 226.447Z" fill="#F2AEB0"/>
<path d="M298.862 97.9906H174.007C167.81 97.9906 161.853 100.387 157.383 104.679L129.318 131.63C124.848 135.922 118.891 138.319 112.695 138.319H0.0119629" stroke="#FFB2B1" stroke-width="5" stroke-linejoin="round"/>
<path d="M302.925 97.2701C302.925 102.355 298.882 106.477 293.894 106.477C288.905 106.477 284.862 102.355 284.862 97.2701C284.862 92.1854 288.905 88.0637 293.894 88.0637C298.882 88.0637 302.925 92.1854 302.925 97.2701Z" fill="#FF383D"/>
</svg>
