<svg width="517" height="249" viewBox="0 0 517 249" fill="none" xmlns="http://www.w3.org/2000/svg">
<path d="M0.883667 3.48206H167.827C176.71 3.48206 184.866 8.38819 189.028 16.2351L219.93 74.4877C224.093 82.3347 232.249 87.2408 241.132 87.2408H322.863" stroke="#FFB2B1" stroke-width="5" stroke-linejoin="round"/>
<path d="M326.929 87.1409C326.929 92.2256 322.885 96.3473 317.897 96.3473C312.909 96.3473 308.865 92.2256 308.865 87.1409C308.865 82.0562 312.909 77.9344 317.897 77.9344C322.885 77.9344 326.929 82.0562 326.929 87.1409Z" fill="#FF383D"/>
<path opacity="0.15" d="M352.471 105.781C352.471 66.3942 383.795 34.4646 422.434 34.4646C461.073 34.4646 492.397 66.3942 492.397 105.781C492.397 145.167 461.073 177.097 422.434 177.097C383.795 177.097 352.471 145.167 352.471 105.781Z" fill="#FF383D"/>
<path d="M388.788 86.1425H394.385C396.104 86.1425 397.407 86.5256 398.295 87.2919C399.19 88.051 399.638 89.1359 399.638 90.5468C399.638 91.5279 399.409 92.3658 398.95 93.0604C398.499 93.7479 397.862 94.2456 397.038 94.5536L399.724 100.247H396.845L394.471 94.994H391.366V100.247H388.788V86.1425ZM394.385 92.7489C395.223 92.7489 395.857 92.5484 396.286 92.1473C396.716 91.7391 396.931 91.2128 396.931 90.5682C396.931 89.9237 396.712 89.4045 396.276 89.0106C395.846 88.6096 395.216 88.4091 394.385 88.4091H391.366V92.7489H394.385ZM402.001 86.1425H404.579V95.0585C404.579 96.147 404.887 96.9384 405.503 97.4325C406.119 97.9266 406.903 98.1737 407.856 98.1737C408.865 98.1737 409.668 97.9123 410.262 97.3895C410.856 96.8596 411.154 96.0826 411.154 95.0585V86.1425H413.732V95.1659C413.732 96.326 413.477 97.3108 412.969 98.12C412.461 98.9221 411.762 99.5272 410.874 99.9354C409.993 100.336 408.987 100.537 407.856 100.537C406.71 100.537 405.697 100.333 404.816 99.9247C403.935 99.5093 403.244 98.9006 402.742 98.0985C402.248 97.2893 402.001 96.3117 402.001 95.1659V86.1425ZM428.244 86.1425V100.247H425.827L419.339 90.5897V100.247H416.782V86.1425H419.21L425.699 95.8212V86.1425H428.244ZM442.875 86.1425V100.247H440.458L433.97 90.5897V100.247H431.413V86.1425H433.841L440.329 95.8212V86.1425H442.875ZM447.656 86.1425L449.331 88.9999C449.74 89.716 450.101 90.3785 450.416 90.9872C450.731 91.5887 450.925 91.9683 450.996 92.1259C451.082 91.9611 451.276 91.6031 451.576 91.0516C451.884 90.493 452.264 89.8091 452.715 88.9999L454.391 86.1425H457.27L452.275 94.5966V100.247H449.697V94.5966L444.68 86.1425H447.656ZM407.824 115.142V129.247H405.407L398.918 119.59V129.247H396.362V115.142H398.789L405.278 124.821V115.142H407.824ZM425.075 122.189C425.075 123.607 424.753 124.875 424.109 125.992C423.464 127.109 422.573 127.979 421.434 128.602C420.302 129.225 419.031 129.537 417.62 129.537C416.21 129.537 414.938 129.229 413.807 128.613C412.683 127.997 411.802 127.131 411.164 126.014C410.527 124.896 410.208 123.629 410.208 122.211C410.208 120.786 410.527 119.518 411.164 118.408C411.802 117.291 412.683 116.421 413.807 115.798C414.938 115.175 416.217 114.863 417.642 114.863C419.053 114.863 420.32 115.175 421.445 115.798C422.576 116.421 423.464 117.287 424.109 118.397C424.753 119.5 425.075 120.764 425.075 122.189ZM422.347 122.189C422.347 121.23 422.146 120.377 421.745 119.633C421.344 118.888 420.782 118.308 420.059 117.892C419.343 117.47 418.537 117.259 417.642 117.259C416.732 117.259 415.916 117.47 415.193 117.892C414.476 118.308 413.914 118.888 413.506 119.633C413.098 120.377 412.894 121.237 412.894 122.211C412.894 123.163 413.098 124.016 413.506 124.767C413.914 125.512 414.476 126.092 415.193 126.508C415.916 126.923 416.732 127.131 417.642 127.131C418.537 127.131 419.343 126.923 420.059 126.508C420.782 126.092 421.344 125.512 421.745 124.767C422.146 124.016 422.347 123.156 422.347 122.189ZM426.923 119.149C426.923 118.283 427.131 117.527 427.546 116.883C427.969 116.238 428.56 115.74 429.319 115.39C430.085 115.039 430.966 114.863 431.961 114.863C432.942 114.863 433.816 115.035 434.582 115.379C435.349 115.723 435.947 116.21 436.376 116.84C436.806 117.47 437.021 118.204 437.021 119.042H434.367C434.353 118.44 434.113 117.957 433.648 117.592C433.189 117.219 432.584 117.033 431.832 117.033C431.145 117.033 430.593 117.205 430.178 117.549C429.77 117.885 429.566 118.322 429.566 118.859C429.566 119.389 429.745 119.78 430.103 120.03C430.468 120.281 430.951 120.478 431.553 120.621L433.863 121.19C434.915 121.441 435.768 121.903 436.419 122.576C437.071 123.242 437.397 124.101 437.397 125.154C437.397 126.035 437.175 126.805 436.731 127.464C436.294 128.123 435.671 128.635 434.862 129C434.06 129.358 433.125 129.537 432.058 129.537C430.475 129.537 429.186 129.154 428.191 128.388C427.202 127.614 426.665 126.565 426.579 125.24H429.233C429.261 125.899 429.537 126.418 430.06 126.798C430.583 127.17 431.263 127.356 432.101 127.356C432.91 127.356 433.544 127.184 434.002 126.841C434.461 126.497 434.69 126.024 434.69 125.423C434.69 124.907 434.529 124.517 434.206 124.252C433.884 123.987 433.462 123.79 432.939 123.661L430.575 123.092C429.415 122.812 428.517 122.347 427.879 121.695C427.242 121.036 426.923 120.188 426.923 119.149ZM442.317 117.495V121.018H448.107V123.264H442.317V126.894H448.762V129.247H439.739V115.142H448.762V117.495H442.317Z" fill="#FF383D"/>
<path d="M427.054 16.8292C475.362 16.8292 514.524 56.7486 514.524 105.995C514.524 155.238 475.362 195.157 427.054 195.157V239.192" stroke="#FFD6D7" stroke-width="2.4" stroke-miterlimit="10"/>
<path d="M419.861 241.416C419.861 237.365 423.081 234.083 427.054 234.083C431.025 234.083 434.248 237.365 434.248 241.416C434.248 245.466 431.025 248.748 427.054 248.748C423.081 248.748 419.861 245.466 419.861 241.416Z" fill="#F2AEB0"/>
</svg>
