<svg width="656" height="298" viewBox="0 0 656 298" fill="none" xmlns="http://www.w3.org/2000/svg">
<path opacity="0.15" d="M0.196289 154.397C0.196289 115.01 31.5199 83.0809 70.1589 83.0809C108.798 83.0809 140.119 115.01 140.119 154.397C140.119 193.783 108.798 225.713 70.1589 225.713C31.5199 225.713 0.196289 193.783 0.196289 154.397Z" fill="#FF383D"/>
<g filter="url(#filter0_d)">
<path d="M20.8845 150.826C22.2595 150.826 23.4841 151.127 24.5583 151.729C25.6397 152.33 26.4812 153.172 27.0828 154.253C27.6843 155.327 27.9851 156.548 27.9851 157.916C27.9851 159.277 27.6879 160.491 27.0935 161.558C26.4991 162.618 25.6612 163.445 24.5798 164.039C23.5056 164.634 22.2738 164.931 20.8845 164.931H15.6423V150.826H20.8845ZM20.6589 162.578C21.5828 162.578 22.392 162.385 23.0867 161.998C23.7885 161.604 24.3292 161.056 24.7087 160.355C25.0883 159.653 25.2781 158.84 25.2781 157.916C25.2781 156.978 25.0883 156.154 24.7087 155.445C24.3292 154.729 23.7885 154.174 23.0867 153.78C22.392 153.379 21.5828 153.179 20.6589 153.179H18.2205V162.578H20.6589ZM31.0037 150.826L32.6794 153.684C33.0876 154.4 33.4493 155.062 33.7644 155.671C34.0795 156.273 34.2729 156.652 34.3445 156.81C34.4304 156.645 34.6238 156.287 34.9246 155.736C35.2325 155.177 35.6121 154.493 36.0632 153.684L37.739 150.826H40.6179L35.6228 159.28V164.931H33.0447V159.28L28.0281 150.826H31.0037ZM48.2019 150.826C49.6843 150.826 50.8481 151.245 51.6931 152.083C52.5453 152.921 52.9714 154.042 52.9714 155.445C52.9714 156.355 52.7781 157.161 52.3914 157.862C52.0046 158.557 51.446 159.101 50.7156 159.495C49.9923 159.889 49.1401 160.086 48.1589 160.086H44.99V164.931H42.4119V150.826H48.2019ZM47.6755 157.873C48.5421 157.873 49.1902 157.64 49.6199 157.175C50.0567 156.702 50.2751 156.111 50.2751 155.402C50.2751 154.758 50.0567 154.214 49.6199 153.77C49.1902 153.319 48.5636 153.093 47.74 153.093H44.99V157.873H47.6755ZM54.6902 154.833C54.6902 153.967 54.8979 153.211 55.3132 152.567C55.7358 151.922 56.3266 151.424 57.0857 151.073C57.852 150.722 58.7328 150.547 59.7283 150.547C60.7094 150.547 61.5831 150.719 62.3494 151.063C63.1156 151.406 63.7136 151.893 64.1433 152.524C64.573 153.154 64.7878 153.888 64.7878 154.726H62.1345C62.1202 154.124 61.8803 153.641 61.4148 153.276C60.9565 152.903 60.3513 152.717 59.5994 152.717C58.9119 152.717 58.3604 152.889 57.9451 153.233C57.5369 153.569 57.3328 154.006 57.3328 154.543C57.3328 155.073 57.5118 155.463 57.8699 155.714C58.2351 155.965 58.7185 156.162 59.3201 156.305L61.6296 156.874C62.6824 157.125 63.5346 157.587 64.1863 158.26C64.838 158.926 65.1638 159.785 65.1638 160.838C65.1638 161.719 64.9418 162.489 64.4978 163.148C64.061 163.806 63.4379 164.319 62.6287 164.684C61.8266 165.042 60.892 165.221 59.825 165.221C58.2423 165.221 56.9532 164.838 55.9578 164.071C54.9695 163.298 54.4324 162.249 54.3464 160.924H56.9998C57.0284 161.583 57.3041 162.102 57.8269 162.482C58.3497 162.854 59.03 163.04 59.8679 163.04C60.6772 163.04 61.311 162.868 61.7693 162.525C62.2276 162.181 62.4568 161.708 62.4568 161.107C62.4568 160.591 62.2957 160.201 61.9734 159.936C61.6511 159.671 61.2286 159.474 60.7058 159.345L58.3425 158.776C57.1824 158.496 56.2836 158.031 55.6462 157.379C55.0089 156.72 54.6902 155.872 54.6902 154.833ZM78.9675 150.826V164.931H76.5505L70.0623 155.274V164.931H67.5056V150.826H69.9333L76.4216 160.505V150.826H78.9675ZM96.2195 157.873C96.2195 159.291 95.8972 160.559 95.2527 161.676C94.6082 162.793 93.7166 163.663 92.5779 164.286C91.4464 164.909 90.1752 165.221 88.7644 165.221C87.3536 165.221 86.0824 164.913 84.9509 164.297C83.8266 163.681 82.9457 162.815 82.3083 161.697C81.671 160.58 81.3523 159.313 81.3523 157.895C81.3523 156.47 81.671 155.202 82.3083 154.092C82.9457 152.975 83.8266 152.105 84.9509 151.482C86.0824 150.859 87.3608 150.547 88.7859 150.547C90.1967 150.547 91.4643 150.859 92.5886 151.482C93.7201 152.105 94.6082 152.971 95.2527 154.081C95.8972 155.184 96.2195 156.448 96.2195 157.873ZM93.491 157.873C93.491 156.914 93.2904 156.061 92.8894 155.317C92.4884 154.572 91.9262 153.992 91.2029 153.576C90.4867 153.154 89.6811 152.943 88.7859 152.943C87.8764 152.943 87.06 153.154 86.3367 153.576C85.6205 153.992 85.0583 154.572 84.6501 155.317C84.2419 156.061 84.0378 156.921 84.0378 157.895C84.0378 158.847 84.2419 159.699 84.6501 160.451C85.0583 161.196 85.6205 161.776 86.3367 162.192C87.06 162.607 87.8764 162.815 88.7859 162.815C89.6811 162.815 90.4867 162.607 91.2029 162.192C91.9262 161.776 92.4884 161.196 92.8894 160.451C93.2904 159.699 93.491 158.84 93.491 157.873ZM101.172 153.179V156.702H106.962V158.947H101.172V162.578H107.617V164.931H98.5935V150.826H107.617V153.179H101.172ZM114.223 150.826H116.844L122.076 164.931H119.347L118.209 161.719H112.816L111.624 164.931H108.96L114.223 150.826ZM117.457 159.581L116.554 157.1C116.469 156.863 116.232 156.165 115.845 155.005L115.545 154.124C115.487 154.318 115.351 154.722 115.136 155.338C114.922 155.954 114.703 156.541 114.481 157.1L113.557 159.581H117.457Z" fill="#FF383D"/>
</g>
<path d="M69.8596 65.8261C118.168 65.8261 157.33 105.746 157.33 154.989C157.33 204.235 118.168 244.154 69.8596 244.154V288.186" stroke="#FFD6D7" stroke-width="2.4" stroke-miterlimit="10"/>
<path d="M62.666 290.411C62.666 286.361 65.8857 283.079 69.8592 283.079C73.8327 283.079 77.0524 286.361 77.0524 290.411C77.0524 294.459 73.8327 297.744 69.8592 297.744C65.8857 297.744 62.666 294.459 62.666 290.411Z" fill="#F2AEB0"/>
<path d="M174.265 166.985H350.594C360.286 166.985 369.027 161.155 372.751 152.207L428.62 17.9695C432.344 9.0212 441.085 3.19128 450.777 3.19128H655.713" stroke="#FFB2B1" stroke-width="5" stroke-linejoin="round"/>
<path d="M189.367 167.396C189.367 172.48 185.323 176.602 180.335 176.602C175.347 176.602 171.303 172.48 171.303 167.396C171.303 162.311 175.347 158.189 180.335 158.189C185.323 158.189 189.367 162.311 189.367 167.396Z" fill="#FF383D"/>
<defs>
<filter id="filter0_d" x="15.6423" y="150.547" width="106.434" height="14.6738" filterUnits="userSpaceOnUse" color-interpolation-filters="sRGB">
<feFlood flood-opacity="0" result="BackgroundImageFix"/>
<feColorMatrix in="SourceAlpha" type="matrix" values="0 0 0 0 0 0 0 0 0 0 0 0 0 0 0 0 0 0 127 0"/>
<feOffset/>
<feColorMatrix type="matrix" values="0 0 0 0 0 0 0 0 0 0 0 0 0 0 0 0 0 0 0.1 0"/>
<feBlend mode="normal" in2="BackgroundImageFix" result="effect1_dropShadow"/>
<feBlend mode="normal" in="SourceGraphic" in2="effect1_dropShadow" result="shape"/>
</filter>
</defs>
</svg>
