<svg width="75" height="76" viewBox="0 0 75 76" fill="none" xmlns="http://www.w3.org/2000/svg">
<ellipse opacity="0.15" cx="37.5405" cy="38.1195" rx="37.1435" ry="37.862" fill="#FA5652"/>
<path d="M28.3214 53.7457C26.2974 53.7457 24.4494 53.3644 22.7774 52.6017C21.1054 51.8391 19.6828 50.7684 18.5094 49.3897C17.3361 48.0111 16.4121 46.3391 15.7374 44.3737C15.0921 42.4084 14.7694 40.2377 14.7694 37.8617C14.7694 35.5151 15.0921 33.3591 15.7374 31.3937C16.4121 29.4284 17.3361 27.7564 18.5094 26.3777C19.7121 24.9991 21.1494 23.9284 22.8214 23.1657C24.4934 22.4031 26.3268 22.0217 28.3214 22.0217C30.3454 22.0217 32.1934 22.4031 33.8654 23.1657C35.5374 23.9284 36.9601 24.9991 38.1334 26.3777C39.3068 27.7564 40.2161 29.4284 40.8614 31.3937C41.5361 33.3591 41.8734 35.5151 41.8734 37.8617C41.8734 40.2377 41.5508 42.4084 40.9054 44.3737C40.2601 46.3391 39.3361 48.0111 38.1334 49.3897C36.9601 50.7684 35.5374 51.8391 33.8654 52.6017C32.1934 53.3644 30.3454 53.7457 28.3214 53.7457ZM28.3214 48.5097C30.6974 48.5097 32.5748 47.5564 33.9534 45.6497C35.3321 43.7431 36.0214 41.1471 36.0214 37.8617C36.0214 34.6351 35.3174 32.0684 33.9094 30.1617C32.5308 28.2257 30.6681 27.2577 28.3214 27.2577C25.9748 27.2577 24.1121 28.2257 22.7334 30.1617C21.3548 32.0684 20.6654 34.6351 20.6654 37.8617C20.6654 41.1471 21.3548 43.7431 22.7334 45.6497C24.1121 47.5564 25.9748 48.5097 28.3214 48.5097ZM56.2886 22.5057V53.3057H50.2606V28.6217L44.2326 31.0857V25.8497L52.4606 22.5057H56.2886Z" fill="#FA5652"/>
</svg>
