<svg width="273" height="258" viewBox="0 0 273 258" fill="none" xmlns="http://www.w3.org/2000/svg">
<path d="M103.824 243.7C89.3073 248.944 74.6497 251.366 59.0152 248.338C41.5889 244.961 26.4739 229.76 17.9334 214.6C14.7602 208.969 12.2339 202.677 12.564 196.194C13.3321 181.215 27.2139 179.542 38.9974 181.964C45.6398 183.327 51.7389 186.428 57.7688 189.499C67.7797 194.602 79.5229 197.112 88.4981 204.185C91.5097 206.565 93.7714 209.425 97.271 211.157C102.715 213.853 108.929 215.126 114.52 217.579C119.294 219.684 124.63 223.148 124.637 228.447C124.638 233.883 119.075 237.346 114.187 239.51C110.727 241.052 107.282 242.457 103.824 243.7Z" fill="url(#paint0_linear)"/>
<path d="M50.3915 50.4983C74.1723 14.7745 123.347 0.430632 163.206 13.862C182.426 20.3421 198.534 33.8355 213.391 47.8428C226.487 60.1883 239.192 73.5041 248.135 89.375C254.242 100.208 258.613 113.194 261.699 125.317C266.313 143.47 262.123 166.859 239.103 165.145C233.702 164.744 229.029 162.764 223.978 161.032C219.892 159.628 215.888 160.47 211.646 159.784C200.968 158.061 190.682 154.053 180.954 149.36C161.131 139.785 143.018 126.777 122.631 118.387C105.924 111.521 88.0822 107.975 70.0681 107.943C62.4684 107.93 54.4775 108.472 47.6794 105.008C30.9237 96.4628 38.4586 73.4203 44.7163 60.458C46.3742 57.0053 48.2707 53.677 50.3915 50.4983Z" fill="url(#paint1_linear)"/>
<path d="M236.848 55.8906C240.763 59.5052 256.146 69.3727 256.442 57.7931C256.512 54.9083 255.228 52.1073 253.481 49.9947C251.483 47.5699 249.217 46.2979 247.656 43.4728C245.746 40.0618 243.572 36.8559 241.163 33.8967C236.237 27.7374 230.485 22.0465 223.506 19.5109C218.612 17.7346 210.325 18.1813 208 24.5758C204.612 33.8845 219.096 35.5901 223.513 38.9825C227.705 42.1935 230.079 47.7109 233.4 52.0958C234.449 53.4785 235.603 54.7488 236.848 55.8906Z" fill="url(#paint2_linear)"/>
<path d="M164.449 44.5681C172.742 49.545 178.962 56.9945 186.523 62.9941C199.111 72.9812 216.365 75.0244 230.8 81.9697C245.519 89.0561 256.634 100.069 261.659 115.942C268.151 136.43 268.768 160.794 263.252 181.857C257.178 205.042 242.914 220.443 222.057 230.714C201.213 240.978 178.122 245.768 155.092 246.757C152.87 246.854 150.651 246.906 148.423 246.921C98.3924 247.217 31.7978 229.266 14.7642 174.48C14.6081 173.98 14.4585 173.479 14.3084 172.972C12.5532 166.868 11.5212 160.572 11.2345 154.218C10.1631 131.693 14.0306 106.831 21.7779 85.7145C26.9886 71.4983 38.2091 59.4779 50.0324 50.9131C66.6442 38.8806 86.9129 35.8098 107.086 34.3661C122.025 33.2977 138.825 32.9073 152.952 38.7318C156.922 40.3817 160.765 42.3326 164.449 44.5681Z" fill="url(#paint3_linear)"/>
<path d="M186.599 100.578C186.599 100.578 185.926 110.263 184.984 123.907C184.242 134.62 183.329 147.774 182.429 160.623C182.211 163.778 181.983 166.906 181.769 169.977C181.255 177.399 180.758 184.473 180.312 190.62C179.922 195.789 179.588 200.315 179.334 203.827C178.996 208.327 178.768 211.18 178.684 211.673C178.19 214.937 168.77 221.272 147.069 221.272C125.378 221.272 112.757 221.617 108.557 216.309C107.926 215.5 107.162 212.359 106.327 207.584C104.51 197.217 102.329 179.182 100.366 160.981C99.1402 149.679 97.983 138.324 97.0403 128.682C95.5743 113.758 94.5927 102.98 94.5927 102.98L120.951 102.294L154.467 101.416L186.599 100.578Z" fill="#FB4C47"/>
<path d="M184.986 123.908C184.244 134.62 183.331 147.774 182.431 160.624C174.034 162.943 149.158 167.648 100.368 160.982C99.1421 149.68 97.9849 138.325 97.0422 128.683C109.882 130.19 151.469 133.908 184.986 123.908Z" fill="#D9423D"/>
<path d="M179.334 203.828C178.996 208.324 178.768 211.18 178.687 211.674C178.19 214.938 168.77 221.273 147.069 221.273C125.378 221.273 112.759 221.618 108.56 216.309C107.926 215.498 107.162 212.36 106.327 207.585C117.778 209.686 149.988 214.043 179.334 203.828Z" fill="#D9423D"/>
<path d="M189.45 101.786C187.945 103.486 175.675 109.328 142.197 111.031C139.064 111.193 136.034 111.276 133.171 111.289C107.956 111.495 93.3808 106.806 93.085 105.901C92.7502 104.858 92.0773 97.999 92.9257 97.1508L92.9387 97.1375C93.7481 96.4351 103.353 101.471 130.99 100.646C134.396 100.55 138.066 100.358 142.035 100.057C174.556 97.6014 184.984 92.5418 187.646 92.3761C187.958 92.3496 188.16 92.3894 188.284 92.5153C189.45 93.7214 190.972 100.057 189.45 101.786Z" fill="#FF807C"/>
<path d="M187.609 93.1998C186.439 97.6696 152.451 105.9 135.805 105.542C134.472 105.516 133.062 105.476 131.596 105.393C114.803 104.611 90.9054 101.086 92.924 97.1494L92.937 97.1362C93.1516 96.7916 99.8834 86.7121 126.697 83.9421C128.326 83.7765 130.032 83.6406 131.81 83.5313C132.737 83.4617 133.679 83.4186 134.648 83.3656C134.823 83.3656 134.999 83.3656 135.174 83.3523C136.143 83.3093 137.138 83.2828 138.162 83.2695C139.345 83.243 140.502 83.2297 141.63 83.2297C173.882 82.9945 187.082 88.1932 187.648 92.3748C187.687 92.663 187.677 92.9381 187.609 93.1998Z" fill="#C63F3B"/>
<path d="M149.667 104.385C149.137 105.281 146.306 106.071 143.035 106.479C139.814 106.882 136.146 106.899 133.832 106.267C132.789 105.986 132.015 105.583 131.671 105.035C131.485 104.738 131.212 103.909 130.868 102.682C130.268 100.571 129.444 97.2665 128.537 93.4481C128.434 92.9936 128.318 92.5349 128.21 92.0592C127.668 89.7741 127.101 87.3149 126.517 84.8514C126.157 83.3054 125.776 81.7594 125.42 80.2303C125.213 79.3681 125.01 78.5229 124.82 77.6989C124.083 74.6536 123.379 71.7908 122.746 69.4166C121.942 66.3372 121.255 64.0522 120.792 63.1942C120.688 63.0158 120.601 62.8926 120.535 62.8417C120.431 62.7695 120.278 62.7355 120.059 62.7015C118.842 62.5061 115.894 62.7015 112.429 62.9648C105.47 63.4915 96.4906 64.2815 95.6875 62.6123C95.1907 61.576 94.814 59.2909 94.7146 56.7595C94.5242 52.8179 94.9837 48.32 96.5444 47.2454C97.7284 46.4384 104.514 45.6314 111.916 45.2746C115.758 45.1175 119.765 45.0665 123.242 45.2067C127.668 45.3808 131.228 45.8565 132.528 46.7867C133.095 47.1944 133.816 48.4431 134.656 50.3077C135.857 52.9623 137.276 56.8444 138.767 61.3636C139.64 64.0734 140.551 66.9913 141.462 69.9772C142.348 72.9504 143.221 75.9915 144.049 78.9986C144.186 79.4531 144.302 79.8948 144.422 80.3535C144.579 80.9311 144.753 81.513 144.906 82.0907C145.436 84.0784 145.95 86.0322 146.43 87.8926C146.72 89.0181 146.993 90.0927 147.233 91.146C147.899 93.8006 148.45 96.1919 148.881 98.1966C149.58 101.658 149.907 103.965 149.667 104.385Z" fill="#F5C827"/>
<path d="M148.666 98.0223L141.062 99.8428L130.496 102.362C129.895 100.32 129.064 97.1223 128.149 93.4279L138.435 90.3663L146.194 88.0526C147.213 91.8621 148.06 95.3182 148.666 98.0223Z" fill="#FFAE00"/>
<path d="M144.346 80.086C142.191 80.6492 139.404 81.3973 136.563 82.1234C132.894 83.0914 129.138 84.0727 126.592 84.7504C126.235 83.1442 125.858 81.5425 125.501 79.9584C125.295 79.0651 125.098 78.1894 124.909 77.3358L134.084 72.8914L141.407 69.3403C142.29 72.4162 143.156 75.5668 143.973 78.6823C144.108 79.1575 144.227 79.6108 144.346 80.086Z" fill="#FFAE00"/>
<path d="M138.946 61.4564L131.631 64.9868L122.584 69.3405C121.764 66.3257 121.062 64.0886 120.589 63.2486L128.549 56.1546L134.747 50.6283C135.973 53.2272 137.424 57.032 138.946 61.4564Z" fill="#FFAE00"/>
<path d="M122.747 45.2052C122.337 47.6371 121.835 50.6225 121.279 53.7295C120.754 56.6772 120.213 59.7129 119.708 62.4761C118.552 62.2832 115.742 62.4761 112.438 62.7361L112.209 54.3166L111.949 45.2765C115.607 45.1171 119.432 45.0668 122.747 45.2052Z" fill="#FFAE00"/>
<g opacity="0.309998">
<g opacity="0.309998">
<path opacity="0.309998" d="M149.285 90.5891C157.405 90.9535 165.44 91.8714 173.436 93.3723C175.975 93.8495 177.064 89.8866 174.509 89.4062C166.158 87.8356 157.766 86.8548 149.285 86.4738C146.688 86.3578 146.694 90.4731 149.285 90.5891Z" fill="white"/>
</g>
</g>
<g opacity="0.300003">
<g opacity="0.300003">
<path opacity="0.300003" d="M174.483 121.531C174.021 136.557 173.082 151.55 171.671 166.514C171.421 169.148 175.461 169.131 175.705 166.514C177.122 151.55 178.058 136.557 178.52 121.531C178.601 118.883 174.564 118.883 174.483 121.531Z" fill="#FFC7D3"/>
</g>
<g opacity="0.300003">
<path opacity="0.300003" d="M173.55 177.925C176.147 177.925 176.15 173.81 173.55 173.81C170.953 173.81 170.946 177.925 173.55 177.925Z" fill="#FFC7D3"/>
</g>
</g>
<defs>
<linearGradient id="paint0_linear" x1="11.2754" y1="198.261" x2="26.8786" y2="251.411" gradientUnits="userSpaceOnUse">
<stop stop-color="#FFD0D0"/>
<stop offset="1" stop-color="#FFF7F7"/>
</linearGradient>
<linearGradient id="paint1_linear" x1="292.601" y1="55.7021" x2="123.705" y2="17.4419" gradientUnits="userSpaceOnUse">
<stop stop-color="#FFF7F7"/>
<stop offset="1" stop-color="#FFD0D0"/>
</linearGradient>
<linearGradient id="paint2_linear" x1="256.841" y1="57.59" x2="198.668" y2="33.2148" gradientUnits="userSpaceOnUse">
<stop stop-color="#FFD0D0"/>
<stop offset="1" stop-color="#FFFBFC"/>
</linearGradient>
<linearGradient id="paint3_linear" x1="243.785" y1="223.642" x2="9.0659" y2="90.2969" gradientUnits="userSpaceOnUse">
<stop stop-color="#FFCFCF"/>
<stop offset="1" stop-color="#FFF8F8"/>
</linearGradient>
</defs>
</svg>
