<svg width="568" height="569" viewBox="0 0 568 569" fill="none" xmlns="http://www.w3.org/2000/svg">
<g filter="url(#filter0_d)">
<path d="M215.247 540.581C184.967 551.518 154.392 556.571 121.78 550.255C85.4295 543.212 53.9008 511.503 36.086 479.88C29.4668 468.135 24.1972 455.01 24.8858 441.486C26.488 410.242 55.4444 406.751 80.0239 411.804C93.8794 414.646 106.602 421.115 119.18 427.522C140.062 438.167 164.557 443.401 183.279 458.155C189.561 463.12 194.278 469.086 201.578 472.698C212.934 478.321 225.895 480.976 237.558 486.094C247.516 490.486 258.647 497.71 258.661 508.765C258.663 520.102 247.059 527.327 236.863 531.841C229.646 535.056 222.461 537.989 215.247 540.581Z" fill="url(#paint0_linear)"/>
<path d="M103.789 137.577C153.394 63.0593 255.968 33.1391 339.112 61.156C379.204 74.673 412.804 102.819 443.795 132.037C471.112 157.789 497.613 185.565 516.268 218.671C529.006 241.268 538.123 268.355 544.561 293.644C554.186 331.508 545.445 380.296 497.428 376.721C486.161 375.884 476.415 371.754 465.878 368.142C457.355 365.213 449.003 366.969 440.154 365.539C417.881 361.944 396.424 353.585 376.134 343.794C334.784 323.822 297.001 296.689 254.476 279.188C219.626 264.864 182.409 257.469 144.833 257.401C128.981 257.375 112.312 258.506 98.1319 251.28C63.1809 233.455 78.898 185.39 91.9511 158.352C95.4093 151.15 99.3652 144.207 103.789 137.577Z" fill="url(#paint1_linear)"/>
<path d="M492.72 148.824C500.887 156.363 532.973 176.946 533.591 152.792C533.737 146.775 531.059 140.932 527.415 136.525C523.246 131.467 518.52 128.814 515.264 122.921C511.281 115.806 506.746 109.119 501.72 102.946C491.444 90.0982 479.447 78.2273 464.89 72.9382C454.68 69.2329 437.394 70.1648 432.544 83.5033C425.478 102.92 455.69 106.478 464.904 113.555C473.648 120.252 478.6 131.761 485.527 140.908C487.716 143.792 490.124 146.442 492.72 148.824Z" fill="url(#paint2_linear)"/>
<path d="M341.705 125.207C359.003 135.588 371.979 151.127 387.75 163.642C414.007 184.474 449.997 188.736 480.108 203.224C510.811 218.006 533.995 240.978 544.478 274.087C558.019 316.823 559.307 367.646 547.801 411.582C535.131 459.944 505.376 492.069 461.872 513.493C418.392 534.904 370.226 544.896 322.187 546.957C317.551 547.16 312.923 547.27 308.277 547.3C203.916 547.918 65.0042 510.473 29.4736 396.194C29.1479 395.15 28.8358 394.106 28.5227 393.047C24.8616 380.315 22.7089 367.182 22.1107 353.928C19.8759 306.943 27.9432 255.082 44.1035 211.035C54.9727 181.381 78.3777 156.307 103.04 138.442C137.691 113.343 179.97 106.938 222.051 103.926C253.211 101.698 288.256 100.883 317.723 113.033C326.004 116.474 334.02 120.544 341.705 125.207Z" fill="url(#paint3_linear)"/>
<path d="M414.389 537.162C280.622 576.809 169.149 538.578 130.134 514.506L93.905 486.186L106.446 464.947L184.477 457.867L314.063 450.787L418.569 472.027L527.255 435.211H538.402C521.681 492.983 448.759 527.25 414.389 537.162Z" fill="#FB4C47"/>
<path d="M123.678 505.642H453.866C453.866 505.642 465.427 313.688 423.361 285.6C381.3 257.518 193.685 267.142 152.715 295.468C48.8234 367.289 123.678 505.642 123.678 505.642Z" fill="#FB4C47"/>
<path d="M178.647 245.156C178.171 245.156 177.689 244.999 177.293 244.662C176.381 243.914 155.21 225.896 166.793 189.582C170.838 176.884 174.803 167.898 178.303 159.957C184.608 145.669 189.163 135.338 190.024 113.259C190.07 112.058 191.079 111.159 192.261 111.165C193.449 111.217 194.373 112.227 194.327 113.427C193.432 136.341 188.492 147.549 182.233 161.732C178.779 169.569 174.866 178.45 170.878 190.917C160.241 224.295 179.209 240.619 180.018 241.298C180.93 242.064 181.068 243.433 180.311 244.355C179.886 244.883 179.266 245.156 178.647 245.156Z" fill="#000C3E"/>
<path d="M295.856 28.5789C295.299 43.6498 282.763 55.4026 267.858 54.8399C252.958 54.2772 241.329 41.6021 241.885 26.537C242.447 11.4661 254.978 -0.292418 269.883 0.270275C284.783 0.838768 296.413 13.5081 295.856 28.5789Z" fill="#000C3E"/>
<path d="M176.231 234.551C176.231 234.551 184.155 251.072 216.502 256.879C248.854 262.692 274.242 250.858 299.216 260.017C324.191 269.171 360.273 257.239 367.427 246.629C374.576 236.019 373.078 118.521 353.388 98.8147C333.692 79.1147 230.512 62.6689 208.154 85.7219C185.796 108.781 162.049 221.319 176.231 234.551Z" fill="#000C3E"/>
<path d="M363.013 141.851C361.171 191.507 319.868 230.257 270.757 228.395C221.646 226.533 183.32 184.772 185.162 135.11C187.004 85.454 228.307 46.7094 277.418 48.5715C326.529 50.4278 364.855 92.1947 363.013 141.851Z" fill="#000C3E"/>
<path d="M310.59 217.079C310.59 217.079 316.367 287.149 310.59 294.934C304.812 302.719 268.237 296.883 258.615 294.934C248.988 292.991 245.138 217.079 250.91 217.079C256.688 217.079 309.482 201.457 310.59 217.079Z" fill="#FFCEB0"/>
<path d="M201.431 135.106C201.431 135.106 205.092 244.321 278.116 249.037C351.146 253.748 351.072 99.8715 324.646 85.2357C298.214 70.5999 187.931 73.3437 201.431 135.106Z" fill="#FFCEB0"/>
<path d="M276.414 158.484C276.414 158.484 290.361 192.101 286.77 194.328C283.184 196.556 272.679 196.156 269.851 193.685C267.022 191.213 270.711 154.725 276.414 158.484Z" fill="#EE9B68"/>
<path d="M258.932 76.8642C258.932 76.8642 232.746 89.6669 227.766 113.7C222.781 137.739 225.363 199.282 197.617 196.457C197.617 196.457 143.898 74.6598 258.932 76.8642" fill="#000C3E"/>
<path d="M272.734 77.3858C270.359 79.1087 299.734 79.0332 316.527 99.6208C333.326 120.203 337.313 171.651 339.906 172.603C342.505 173.56 352.879 108.856 334.462 89.417C316.051 69.978 286.251 67.5996 272.734 77.3858Z" fill="#000C3E"/>
<path d="M251.927 239.077C251.927 239.077 280.343 255.412 309.839 240.144C309.839 240.144 312.134 258.481 309.839 262.71C307.544 266.939 260.819 269.961 251.622 249.118C251.622 249.118 249.27 238.172 251.927 239.077" fill="#EE9B68"/>
<path d="M333.607 176.991C333.607 176.991 340.601 149.651 352.793 159.379C364.99 169.113 353.957 197.683 341.903 200.276C329.849 202.869 326.946 191.087 333.607 176.991Z" fill="#FFCEB0"/>
<path d="M218.431 172.627C218.431 172.627 213.48 144.835 200.6 153.618C187.719 162.394 196.607 191.724 208.437 195.222C220.267 198.714 224.025 187.188 218.431 172.627Z" fill="#FFCEB0"/>
<path d="M303.499 143.119C303.499 143.119 315.622 134.893 324.566 143.884C332.432 151.791 315.811 146.483 310.085 148.229C304.354 149.975 296.579 150.318 303.499 143.119Z" fill="#41294A"/>
<path d="M252.966 145.063C252.966 145.063 241.348 136.123 231.893 144.57C223.58 151.989 240.476 147.685 246.093 149.773C251.71 151.861 259.455 152.662 252.966 145.063Z" fill="#41294A"/>
<path d="M247.114 154.181C235.835 154.181 226.666 163.121 226.236 174.537C225.806 186.185 234.831 196.018 246.351 196.447L247.154 196.465C258.434 196.465 267.602 187.525 268.032 176.115C268.463 164.461 259.432 154.628 247.917 154.199L247.114 154.181ZM247.154 199.365L246.242 199.348C233.138 198.855 222.88 187.67 223.368 174.421C223.855 161.45 234.286 151.281 247.114 151.281L248.026 151.298C261.125 151.791 271.383 162.976 270.901 176.231C270.413 189.202 259.983 199.365 247.154 199.365Z" fill="#FFFCF6"/>
<path d="M306.447 150.811C295.161 150.811 285.993 159.751 285.569 171.167C285.356 176.805 287.336 182.195 291.134 186.331C294.932 190.472 300.101 192.868 305.684 193.077L306.487 193.095C317.766 193.095 326.935 184.155 327.365 172.739C327.571 167.1 325.592 161.711 321.794 157.569C317.996 153.433 312.832 151.038 307.25 150.829L306.447 150.811ZM306.487 195.995L305.575 195.978C299.229 195.74 293.354 193.013 289.034 188.309C284.714 183.598 282.459 177.473 282.7 171.051C283.182 158.08 293.612 147.911 306.447 147.911L307.359 147.928C313.704 148.166 319.579 150.893 323.899 155.597C328.22 160.308 330.469 166.433 330.233 172.855C329.746 185.826 319.315 195.995 306.487 195.995Z" fill="#FFFCF6"/>
<path d="M225.505 171.109C225.333 171.109 225.149 171.074 224.977 171.005L216.285 167.536C215.545 167.24 215.183 166.399 215.476 165.656C215.769 164.908 216.589 164.548 217.335 164.838L226.033 168.313C226.773 168.603 227.128 169.45 226.836 170.193C226.612 170.761 226.079 171.109 225.505 171.109Z" fill="#FFFCF6"/>
<path d="M327.972 167.273C327.352 167.273 326.773 166.861 326.595 166.217C326.377 165.451 326.819 164.651 327.582 164.43L339.665 160.932C340.439 160.718 341.225 161.158 341.438 161.93C341.656 162.701 341.214 163.502 340.451 163.722L328.362 167.215C328.236 167.255 328.098 167.273 327.972 167.273Z" fill="#FFFCF6"/>
<path d="M267.788 71.1289C267.788 71.1289 271.081 130.328 287.22 135.699C303.359 141.077 343.038 139.603 344.955 133.129C346.871 126.65 314.186 74.5456 290.731 66.1922C249.601 51.539 214.098 119.155 218.791 135.444C223.484 151.739 258.826 137.48 266.365 135.386C273.91 133.292 266.279 82.8294 267.788 71.1289Z" fill="#000C3E"/>
<path d="M269.474 176.348C268.728 176.348 268.103 175.768 268.046 175.014C267.982 174.213 268.573 173.517 269.359 173.453L284.081 172.293C284.965 172.154 285.562 172.833 285.619 173.622C285.682 174.422 285.097 175.118 284.305 175.182L269.589 176.342C269.549 176.348 269.509 176.348 269.474 176.348Z" fill="#FFFCF6"/>
<path d="M252.007 54.8794C251.668 54.8794 251.336 54.7982 251.02 54.6358C243.125 50.5171 238.415 44.7741 237.027 37.5693C233.98 21.7559 248.186 4.80555 248.794 4.09203C249.568 3.16968 250.922 3.06526 251.829 3.85999C252.73 4.64312 252.833 6.01215 252.058 6.9229C251.921 7.08532 238.599 23.0089 241.255 36.7456C242.38 42.5756 246.333 47.2917 252.994 50.7723C254.049 51.3234 254.462 52.6344 253.917 53.7018C253.539 54.4501 252.787 54.8794 252.007 54.8794Z" fill="#000C3E"/>
<path d="M283.147 59.7402C282.539 59.7402 281.925 59.4734 281.501 58.9571C280.738 58.0406 280.858 56.6715 281.77 55.9C281.925 55.7608 297.663 42.262 297.273 28.2701C297.112 22.3357 293.979 17.0278 287.972 12.4915C287.02 11.7721 286.825 10.4089 287.536 9.44595C288.254 8.47719 289.59 8.29156 290.549 9.00508C297.663 14.3826 301.381 20.8274 301.576 28.1656C302.012 44.2691 285.242 58.6323 284.524 59.2356C284.123 59.5778 283.635 59.7402 283.147 59.7402Z" fill="#000C3E"/>
<path d="M360.265 243.32C359.622 243.32 358.985 243.03 358.561 242.479C357.832 241.528 357.998 240.165 358.939 239.428C359.679 238.842 377.098 224.792 372.542 201.124C370.758 191.854 367.488 181.592 364.017 170.727C357.975 151.799 351.727 132.22 351.618 113.321C351.613 112.12 352.571 111.14 353.758 111.134H353.77C354.952 111.134 355.916 112.103 355.921 113.298C356.025 131.524 362.169 150.778 368.107 169.393C371.619 180.386 374.935 190.764 376.765 200.295C381.837 226.643 362.405 242.218 361.578 242.868C361.183 243.175 360.724 243.32 360.265 243.32Z" fill="#000C3E"/>
<path d="M367.437 144.097C367.351 144.097 367.265 144.092 367.174 144.08C365.997 143.935 365.16 142.85 365.303 141.655C368.206 117.755 363.702 98.2003 351.907 83.5354C332.905 59.9081 301.063 56.9671 300.741 56.9497C299.559 56.8452 298.682 55.7953 298.773 54.5945C298.877 53.4053 299.915 52.5061 301.097 52.6105C302.474 52.7208 335.039 55.6966 355.217 80.7568C367.793 96.373 372.624 117.048 369.572 142.189C369.44 143.285 368.51 144.097 367.437 144.097Z" fill="#000C3E"/>
<path d="M279.791 228.981C275.758 228.981 272.643 227.688 272.442 227.607C271.346 227.143 270.835 225.872 271.294 224.764C271.748 223.656 273.027 223.157 274.1 223.587C274.157 223.61 280.026 226.017 285.144 223.436C286.194 222.908 287.502 223.331 288.03 224.416C288.552 225.489 288.122 226.794 287.06 227.334C284.588 228.581 282.046 228.981 279.791 228.981Z" fill="#EE9B68"/>
<path d="M210.997 188.427C210.79 188.427 210.578 188.398 210.371 188.328C209.23 187.98 208.593 186.768 208.943 185.619C212.856 172.619 203.487 163.987 203.395 163.9C202.511 163.105 202.431 161.725 203.223 160.826C204.009 159.927 205.363 159.845 206.263 160.652C206.734 161.075 217.767 171.256 213.051 186.884C212.775 187.823 211.92 188.427 210.997 188.427Z" fill="#EE9B68"/>
<path d="M338.574 194.8C338.511 194.8 338.454 194.8 338.385 194.794C337.203 194.684 336.325 193.634 336.428 192.433C337.846 176.127 345.849 167.53 346.188 167.17C347.014 166.311 348.362 166.288 349.223 167.112C350.083 167.936 350.112 169.31 349.297 170.181C349.223 170.262 341.994 178.122 340.72 192.816C340.617 193.947 339.676 194.8 338.574 194.8Z" fill="#EE9B68"/>
<path d="M213.213 291.858C213.213 291.858 262.066 350.911 299.743 335.11C337.414 319.308 372.71 276.474 353.771 270.789C334.833 265.11 183.597 268.097 213.213 291.858Z" fill="#FFCEB0"/>
<path d="M344.311 212.292C344.311 212.292 359.05 320.294 345.269 332.499C331.494 344.704 314.07 334.019 290.684 342.111C267.299 350.198 266.496 317.364 268.102 300.518C269.709 283.672 277.334 176.674 344.311 212.292Z" fill="white"/>
<path d="M82.9726 379.45L54.0623 465.757L264.748 537.909C264.748 537.909 296.974 455.199 292.918 453.813C288.867 452.421 82.9726 379.45 82.9726 379.45Z" fill="#128E5A"/>
<path d="M124.611 483.849C124.611 483.849 160.635 458.685 159.373 465.083C158.117 471.487 144.181 483.849 144.181 483.849C144.181 483.849 169.488 464.045 171.14 473.947C172.793 483.849 163.911 493.247 163.911 493.247C163.911 493.247 181.714 478.901 184.589 486.32C187.463 493.74 164.491 526.556 144.181 525.604C123.876 524.653 114.68 490.555 124.611 483.849Z" fill="#FFC6A6"/>
<path d="M137.938 435.331L216.814 467.816C216.814 467.816 230.544 425.609 227.962 420.73C225.374 415.846 196.94 414.03 189.143 406.28C181.352 398.535 184.163 389.068 171.14 390.71C158.116 392.352 137.938 435.331 137.938 435.331Z" fill="white"/>
<path d="M281.705 221.873C281.464 221.873 281.212 221.832 280.971 221.745C274.746 219.466 271.659 216.658 271.545 213.166C271.361 207.591 279.255 203.797 280.839 203.09C281.935 202.614 283.197 203.101 283.673 204.203C284.155 205.306 283.662 206.588 282.572 207.069C279.709 208.351 275.784 211.13 275.848 213.021C275.865 213.543 276.393 215.44 282.44 217.65C283.553 218.062 284.132 219.309 283.731 220.44C283.409 221.322 282.583 221.873 281.705 221.873Z" fill="#EE9B68"/>
<path d="M255.787 180.337C255.276 180.337 254.771 180.157 254.364 179.792C245.356 171.751 239.039 173.904 238.781 173.991C237.697 174.385 236.435 173.828 236.027 172.714C235.609 171.595 236.148 170.359 237.249 169.924C237.599 169.785 246.085 166.594 257.21 176.531C258.099 177.326 258.185 178.701 257.399 179.6C256.974 180.087 256.383 180.337 255.787 180.337Z" fill="#41294A"/>
<path d="M300.004 180.83C299.407 180.83 298.816 180.581 298.392 180.093C297.606 179.194 297.692 177.819 298.581 177.025C309.683 167.105 318.186 170.272 318.536 170.417C319.649 170.852 320.199 172.117 319.763 173.231C319.339 174.35 318.094 174.913 317.004 174.478C316.688 174.368 310.383 172.285 301.427 180.285C301.02 180.65 300.515 180.83 300.004 180.83Z" fill="#41294A"/>
<path d="M439.609 473.505C439.609 473.505 466.051 507.53 506.913 483.227C550.111 446.348 559.793 398.165 542.101 361.672C519.329 322.964 463.072 280.221 448.675 280.293C434.271 280.372 384.068 418.544 439.609 473.505Z" fill="#D9423D"/>
<path d="M395.553 258.674C395.553 258.674 339.672 234.49 319.018 240.093C298.363 245.697 338.456 251.017 346.626 255.019C354.795 259.016 316.688 252.403 311.921 255.46C307.159 258.511 346.568 269.806 346.568 269.806C346.568 269.806 311.634 268.773 309.253 274.122C306.872 279.47 341.41 285.526 341.41 285.526C341.41 285.526 315.093 289.947 315.816 295.632C316.533 301.311 365.094 299.542 380.963 319.868C396.827 340.2 419.329 451.045 485.956 440.882C552.578 430.719 551.947 389.195 503.897 335.896C455.847 282.603 414.934 268.031 395.553 258.674Z" fill="#FFC6A6"/>
<path d="M278.918 4.57531C278.272 4.57531 277.569 4.65191 276.808 4.8051C274.952 5.18476 273.75 6.10391 273.028 7.69913C269.81 14.7993 276.596 31.7106 281.444 41.7015C284.44 30.6182 288.03 12.0918 282.957 6.25378C281.98 5.13147 280.65 4.57531 278.918 4.57531ZM282.009 50.0405C281.202 50.0405 280.447 49.5976 280.049 48.8649C278.334 45.7311 263.462 17.8998 268.951 5.78088C270.27 2.86687 272.685 0.975258 275.929 0.31586C281.457 -0.806449 284.633 1.27499 286.318 3.21655C295.133 13.3606 285.296 44.9052 284.146 48.4686C283.865 49.3312 283.113 49.9439 282.225 50.0305C282.153 50.0372 282.081 50.0405 282.009 50.0405Z" fill="#FFD310"/>
<path d="M309.193 15.8369C308.981 15.8369 308.765 15.8502 308.55 15.8835C300.96 16.9125 291.79 33.3209 286.941 43.7015C297.02 39.3754 313.006 31.1129 315.13 23.5998C315.607 21.908 315.286 20.4127 314.127 18.8874C312.565 16.8393 310.948 15.8369 309.193 15.8369ZM282.632 50.1855C282.027 50.1855 281.436 49.9391 281.008 49.4795C280.391 48.8201 280.214 47.8543 280.557 47.0151C281.975 43.5549 294.776 13.136 307.955 11.3443C310.481 11.0013 314.215 11.5408 317.671 16.0766C319.704 18.7409 320.318 21.7814 319.445 24.8653C315.819 37.6903 286.706 48.8201 283.4 50.049C283.148 50.1423 282.89 50.1855 282.632 50.1855Z" fill="#FFD310"/>
<path d="M240.467 42.0995C251.377 49.2485 276.313 54.8089 295.795 42.0995" stroke="#FFD310" stroke-width="4.87"/>
</g>
<defs>
<filter id="filter0_d" x="17.7443" y="0" width="541.867" height="562.324" filterUnits="userSpaceOnUse" color-interpolation-filters="sRGB">
<feFlood flood-opacity="0" result="BackgroundImageFix"/>
<feColorMatrix in="SourceAlpha" type="matrix" values="0 0 0 0 0 0 0 0 0 0 0 0 0 0 0 0 0 0 127 0"/>
<feOffset dy="4"/>
<feGaussianBlur stdDeviation="2"/>
<feColorMatrix type="matrix" values="0 0 0 0 0 0 0 0 0 0 0 0 0 0 0 0 0 0 0.25 0"/>
<feBlend mode="normal" in2="BackgroundImageFix" result="effect1_dropShadow"/>
<feBlend mode="normal" in="SourceGraphic" in2="effect1_dropShadow" result="shape"/>
</filter>
<linearGradient id="paint0_linear" x1="22.1979" y1="445.799" x2="54.7449" y2="556.665" gradientUnits="userSpaceOnUse">
<stop stop-color="#FFCBCB"/>
<stop offset="1" stop-color="#FFF1F1"/>
</linearGradient>
<linearGradient id="paint1_linear" x1="489.069" y1="183.659" x2="161.816" y2="34.7499" gradientUnits="userSpaceOnUse">
<stop stop-color="white"/>
<stop offset="1" stop-color="#FFDDDD"/>
</linearGradient>
<linearGradient id="paint2_linear" x1="534.424" y1="152.368" x2="440.894" y2="83.5499" gradientUnits="userSpaceOnUse">
<stop stop-color="#FFDDDD"/>
<stop offset="1" stop-color="#FFFBFC"/>
</linearGradient>
<linearGradient id="paint3_linear" x1="507.194" y1="498.742" x2="17.5873" y2="220.594" gradientUnits="userSpaceOnUse">
<stop stop-color="#FFE6E6"/>
<stop offset="1" stop-color="#FFF5F5"/>
</linearGradient>
</defs>
</svg>
