<svg width="579" height="234" viewBox="0 0 579 234" fill="none" xmlns="http://www.w3.org/2000/svg">
<path d="M184.694 90.0826H296.616C303.964 90.0826 310.907 93.449 315.458 99.2183L348.237 140.77C352.948 146.742 360.211 150.127 367.815 149.894L578.495 143.44" stroke="#FFB2B1" stroke-width="5" stroke-linejoin="round"/>
<path d="M196.671 90.6032C196.671 95.6879 192.628 99.8096 187.639 99.8096C182.651 99.8096 178.608 95.6879 178.608 90.6032C178.608 85.5185 182.651 81.3968 187.639 81.3968C192.628 81.3968 196.671 85.5185 196.671 90.6032Z" fill="#FF383D"/>
<path d="M0.196289 90.7049C0.196289 51.3185 31.5199 19.3889 70.1589 19.3889C108.798 19.3889 140.119 51.3185 140.119 90.7049C140.119 130.091 108.798 162.021 70.1589 162.021C31.5199 162.021 0.196289 130.091 0.196289 90.7049Z" fill="#FFE1E2"/>
<path d="M69.8574 1.981C118.166 1.981 157.328 41.9004 157.328 91.1436C157.328 140.387 118.166 180.309 69.8574 180.309V224.341" stroke="#FFD6D7" stroke-width="2.4" stroke-miterlimit="10"/>
<path d="M62.6641 226.566C62.6641 222.515 65.8838 219.233 69.8573 219.233C73.8308 219.233 77.0505 222.515 77.0505 226.566C77.0505 230.616 73.8308 233.898 69.8573 233.898C65.8838 233.898 62.6641 230.616 62.6641 226.566Z" fill="#F2AEB0"/>
<path d="M41.9924 88.4773V92.2263H47.4065V94.4607H41.9924V100.229H39.4143V86.1248H48.4377V88.4773H41.9924ZM53.2288 88.4773V92.0007H59.0188V94.2458H53.2288V97.8767H59.6741V100.229H50.6506V86.1248H59.6741V88.4773H53.2288ZM63.9065 86.1248L65.9475 91.3455C66.2555 92.169 66.6243 93.2003 67.054 94.4392C67.4908 95.671 67.7952 96.5518 67.967 97.0818C68.1604 96.5518 68.4719 95.6638 68.9016 94.4177C69.3385 93.1716 69.7109 92.1404 70.0188 91.324L72.0383 86.1248H74.7883L69.3098 100.229H66.6565L61.1028 86.1248H63.9065ZM79.1604 88.4773V92.0007H84.9504V94.2458H79.1604V97.8767H85.6057V100.229H76.5823V86.1248H85.6057V88.4773H79.1604ZM88.3342 86.1248H93.9309C95.6497 86.1248 96.953 86.5079 97.8411 87.2742C98.7362 88.0333 99.1838 89.1182 99.1838 90.5291C99.1838 91.5102 98.9547 92.3481 98.4963 93.0427C98.0452 93.7302 97.4078 94.2279 96.5842 94.5359L99.2698 100.229H96.3909L94.0168 94.9763H90.9124V100.229H88.3342V86.1248ZM93.9309 92.7312C94.7688 92.7312 95.4026 92.5307 95.8323 92.1296C96.262 91.7214 96.4768 91.1951 96.4768 90.5505C96.4768 89.906 96.2584 89.3868 95.8215 88.9929C95.3918 88.5919 94.7616 88.3914 93.9309 88.3914H90.9124V92.7312H93.9309Z" fill="#FF383D"/>
</svg>
