<svg width="468" height="529" viewBox="0 0 468 529" fill="none" xmlns="http://www.w3.org/2000/svg">
<path d="M75.4895 498.358H397.978C397.978 498.358 409.269 309.35 368.184 281.693C327.105 254.042 134.982 259.816 92.4009 283.435C49.8197 307.06 75.4895 498.358 75.4895 498.358Z" fill="#FB4C47"/>
<path d="M129.18 241.869C128.715 241.869 128.245 241.715 127.852 241.384C126.967 240.647 106.29 222.906 117.598 187.149C121.554 174.646 125.432 165.792 128.844 157.973C135.002 143.904 139.452 133.731 140.298 111.997C140.343 110.815 141.503 109.93 142.478 109.935C143.637 109.987 144.54 110.981 144.495 112.163C143.621 134.725 138.79 145.755 132.683 159.721C129.309 167.437 125.482 176.182 121.599 188.463C111.204 221.329 129.724 237.403 130.52 238.071C131.411 238.825 131.539 240.173 130.805 241.081C130.391 241.601 129.786 241.869 129.18 241.869Z" fill="#000C3E"/>
<path d="M243.659 28.6185C243.115 43.4581 230.872 55.0305 216.314 54.4764C201.761 53.9224 190.403 41.4418 190.946 26.6079C191.496 11.7684 203.734 0.190285 218.292 0.744342C232.844 1.30411 244.202 13.779 243.659 28.6185Z" fill="#000C3E"/>
<path d="M126.821 231.428C126.821 231.428 134.559 247.695 166.152 253.413C197.75 259.136 222.546 247.484 246.938 256.503C271.33 265.517 306.571 253.767 313.558 243.32C320.54 232.873 319.078 117.178 299.846 97.7746C280.609 78.3769 179.836 62.1835 157.999 84.8827C136.162 107.588 112.969 218.399 126.821 231.428Z" fill="#000C3E"/>
<path d="M309.246 140.149C307.447 189.043 267.107 227.199 219.141 225.366C171.175 223.532 133.743 182.412 135.542 133.512C137.341 84.6181 177.68 46.4682 225.647 48.3017C273.613 50.1295 311.044 91.2553 309.246 140.149Z" fill="#000C3E"/>
<path d="M258.043 214.226C258.043 214.226 263.686 283.22 258.043 290.885C252.401 298.551 216.678 292.804 207.281 290.885C197.878 288.972 194.118 214.226 199.756 214.226C205.398 214.226 256.962 198.843 258.043 214.226Z" fill="#FFCEB0"/>
<path d="M151.431 133.511C151.431 133.511 155.006 241.049 226.327 245.693C297.655 250.331 297.582 98.8166 271.772 84.4055C245.957 69.9943 138.246 72.696 151.431 133.511Z" fill="#FFCEB0"/>
<path d="M224.664 156.53C224.664 156.53 238.286 189.631 234.778 191.824C231.276 194.018 221.016 193.624 218.254 191.19C215.491 188.757 219.094 152.829 224.664 156.53Z" fill="#EE9B68"/>
<path d="M203.303 167.609C203.124 171.379 199.98 174.28 196.282 174.097C192.589 173.915 189.737 170.71 189.916 166.94C190.096 163.176 193.239 160.269 196.938 160.452C200.63 160.634 203.483 163.839 203.303 167.609Z" fill="#41294A"/>
<path d="M260.838 164.39C260.658 168.16 257.515 171.062 253.816 170.879C250.124 170.696 247.272 167.492 247.451 163.722C247.63 159.958 250.774 157.05 254.472 157.233C258.165 157.416 261.017 160.62 260.838 164.39Z" fill="#41294A"/>
<path d="M207.591 76.1607C207.591 76.1607 182.016 88.767 177.152 112.431C172.283 136.102 174.804 196.699 147.706 193.918C147.706 193.918 95.2398 73.9902 207.591 76.1607Z" fill="#000C3E"/>
<path d="M221.071 76.6761C218.751 78.3726 247.441 78.2983 263.843 98.5699C280.25 118.836 284.144 169.495 286.677 170.432C289.216 171.374 299.347 107.663 281.359 88.5226C263.378 69.382 234.273 67.0401 221.071 76.6761Z" fill="#000C3E"/>
<path d="M200.749 235.885C200.749 235.885 228.497 251.97 257.311 236.936C257.311 236.936 259.552 254.991 257.311 259.155C255.069 263.319 209.434 266.295 200.452 245.772C200.452 245.772 198.154 234.994 200.749 235.885Z" fill="#EE9B68"/>
<path d="M280.529 174.751C280.529 174.751 287.36 147.831 299.267 157.41C311.18 166.994 300.405 195.126 288.632 197.679C276.859 200.232 274.023 188.631 280.529 174.751Z" fill="#FFCEB0"/>
<path d="M168.037 170.454C168.037 170.454 163.201 143.088 150.621 151.736C138.041 160.378 146.721 189.258 158.276 192.702C169.83 196.14 173.501 184.791 168.037 170.454Z" fill="#FFCEB0"/>
<path d="M251.467 140.063C251.467 140.063 264.232 133.585 271.774 143.518C278.409 152.246 262.976 144.929 257.205 145.9C251.439 146.871 243.868 146.203 251.467 140.063Z" fill="#41294A"/>
<path d="M201.305 141.317C201.305 141.317 188.518 134.885 181.009 144.847C174.408 153.597 189.812 146.223 195.584 147.171C201.355 148.125 208.926 147.428 201.305 141.317Z" fill="#41294A"/>
<path d="M196.051 152.293C185.029 152.293 176.074 161.095 175.659 172.337C175.458 177.889 177.385 183.195 181.1 187.268C184.81 191.346 189.853 193.705 195.305 193.911L196.09 193.928C207.112 193.928 216.066 185.126 216.476 173.89C216.683 168.338 214.75 163.026 211.04 158.954C207.331 154.875 202.287 152.516 196.835 152.311L196.051 152.293ZM196.09 196.784L195.199 196.766C189.001 196.532 183.263 193.848 179.044 189.215C174.825 184.577 172.628 178.545 172.858 172.222C173.328 159.45 183.516 149.437 196.051 149.437L196.942 149.455C203.139 149.689 208.877 152.373 213.097 157.006C217.31 161.644 219.513 167.676 219.277 174.004C218.812 186.776 208.625 196.784 196.09 196.784Z" fill="#FFFCF6"/>
<path d="M253.995 148.974C242.978 148.974 234.024 157.776 233.609 169.017C233.402 174.569 235.335 179.876 239.044 183.948C242.754 188.026 247.803 190.385 253.249 190.591L254.034 190.608C265.062 190.608 274.01 181.806 274.425 170.565C274.632 165.013 272.699 159.707 268.99 155.634C265.28 151.556 260.231 149.197 254.779 148.991L253.995 148.974ZM254.034 193.464L253.149 193.447C246.945 193.213 241.207 190.528 236.988 185.896C232.769 181.258 230.572 175.226 230.807 168.903C231.278 156.131 241.465 146.118 253.995 146.118L254.886 146.135C261.083 146.369 266.821 149.054 271.041 153.686C275.26 158.324 277.457 164.356 277.227 170.679C276.756 183.451 266.569 193.464 254.034 193.464Z" fill="#FFFCF6"/>
<path d="M174.944 168.959C174.77 168.959 174.596 168.925 174.428 168.856L165.933 165.441C165.216 165.149 164.863 164.321 165.143 163.59C165.429 162.853 166.247 162.499 166.964 162.785L175.459 166.206C176.176 166.492 176.529 167.326 176.244 168.057C176.031 168.616 175.504 168.959 174.944 168.959Z" fill="#FFFCF6"/>
<path d="M275.023 165.182C274.418 165.182 273.852 164.776 273.679 164.142C273.466 163.394 273.897 162.6 274.642 162.383L286.438 158.939C287.155 158.705 287.956 159.156 288.169 159.921C288.382 160.675 287.951 161.469 287.205 161.686L275.404 165.125C275.281 165.165 275.147 165.182 275.023 165.182Z" fill="#FFFCF6"/>
<path d="M216.243 70.5142C216.243 70.5142 219.46 128.804 235.223 134.094C250.985 139.389 289.739 137.938 291.611 131.563C293.482 125.183 261.559 73.8785 238.652 65.6533C198.48 51.225 163.806 117.803 168.389 133.842C172.973 149.887 207.491 135.847 214.854 133.785C222.222 131.723 214.77 82.0351 216.243 70.5142Z" fill="#000C3E"/>
<g opacity="0.210007">
<g opacity="0.210007">
<path opacity="0.210007" d="M176.994 192.402C176.994 192.402 213.501 172.09 229.241 175.437C244.976 178.784 272.708 179.915 273.828 185.724C274.955 191.533 238.588 188.049 227.358 188.889C216.123 189.729 172.797 201.838 176.994 192.402Z" fill="#DB5C5D"/>
</g>
</g>
<path d="M197.511 179.496C196.665 179.496 195.864 178.97 195.544 178.114C195.135 177.005 195.679 175.772 196.766 175.349C200.027 174.092 200.75 173.07 200.755 173.064C201.159 171.956 202.308 171.505 203.395 171.928C204.487 172.333 204.981 173.693 204.577 174.806C204.246 175.72 202.986 177.525 198.256 179.359C198.01 179.45 197.758 179.496 197.511 179.496Z" fill="#EE9B68"/>
<path d="M252.678 177.951C251.439 177.951 249.489 177.534 246.508 175.963C245.477 175.426 245.074 174.13 245.606 173.079C246.138 172.034 247.405 171.617 248.436 172.159C251.551 173.799 252.779 173.667 252.773 173.656C253.854 173.244 254.942 173.799 255.367 174.901C255.793 175.998 255.132 177.288 254.056 177.723C253.754 177.843 253.311 177.951 252.678 177.951Z" fill="#EE9B68"/>
<path d="M217.886 174.118C217.163 174.118 216.547 173.547 216.49 172.804C216.434 172.016 217.006 171.331 217.779 171.268L232.152 170.126C232.948 170 233.604 170.651 233.66 171.434C233.721 172.222 233.144 172.907 232.371 172.97L217.998 174.113C217.959 174.118 217.925 174.118 217.886 174.118Z" fill="#FFFCF6"/>
<path d="M200.823 54.5146C200.498 54.5146 200.167 54.4346 199.865 54.2747C192.149 50.2192 187.554 44.5644 186.198 37.4702C183.217 21.8995 197.097 5.20922 197.685 4.50665C198.447 3.60988 199.775 3.50135 200.649 4.27818C201.529 5.04928 201.635 6.3973 200.879 7.29407C200.744 7.454 187.727 23.1332 190.322 36.6591C191.426 42.3996 195.281 47.0434 201.787 50.4705C202.818 51.0131 203.227 52.304 202.689 53.355C202.319 54.0919 201.585 54.5146 200.823 54.5146Z" fill="#000C3E"/>
<path d="M231.244 59.3009C230.645 59.3009 230.045 59.0382 229.63 58.5298C228.885 57.6273 229.003 56.2793 229.894 55.5196C230.051 55.3825 245.416 42.0909 245.035 28.3194C244.878 22.4761 241.818 17.244 235.951 12.7773C235.021 12.069 234.831 10.7267 235.525 9.77851C236.215 8.83604 237.548 8.64755 238.467 9.3444C245.421 14.6394 249.047 20.9853 249.237 28.2109C249.669 44.0672 233.284 58.2099 232.589 58.804C232.197 59.141 231.715 59.3009 231.244 59.3009Z" fill="#000C3E"/>
<path d="M306.562 240.063C305.935 240.063 305.313 239.778 304.898 239.235C304.187 238.298 304.349 236.956 305.268 236.231C305.991 235.654 323.003 221.82 318.554 198.515C316.811 189.393 313.612 179.289 310.227 168.602C304.321 149.958 298.219 130.674 298.112 112.059C298.107 110.877 299.043 109.911 300.202 109.906H300.214C301.368 109.906 302.309 110.86 302.315 112.036C302.416 129.989 308.417 148.947 314.222 167.288C317.652 178.1 320.891 188.319 322.678 197.698C327.632 223.642 308.653 238.978 307.846 239.618C307.459 239.921 307.011 240.063 306.562 240.063Z" fill="#000C3E"/>
<path d="M313.566 142.363C313.482 142.363 313.398 142.357 313.308 142.345C312.159 142.203 311.341 141.135 311.481 139.958C314.317 116.408 309.907 97.1413 298.369 82.7016C279.782 59.4198 248.739 56.5695 248.425 56.5524C247.265 56.4495 246.407 55.4157 246.503 54.239C246.598 53.0567 247.607 52.1999 248.772 52.2799C250.111 52.3884 281.923 55.3186 301.63 79.9941C313.913 95.3706 318.631 115.728 315.65 140.483C315.521 141.563 314.614 142.363 313.566 142.363Z" fill="#000C3E"/>
<path d="M228.231 225.622C226.035 225.622 223.642 225.553 221.485 225.473C219.944 225.41 218.739 224.079 218.795 222.503C218.856 220.926 220.218 219.841 221.703 219.761C226.382 219.95 232.131 219.978 233.263 219.687C234.731 219.161 236.283 219.932 236.805 221.418C237.331 222.897 236.53 224.553 235.079 225.085C233.992 225.49 231.308 225.622 228.231 225.622Z" fill="#DB5C5D"/>
<path d="M160.774 186.012C160.572 186.012 160.365 185.983 160.163 185.915C159.048 185.572 158.426 184.378 158.762 183.247C162.59 170.447 153.445 161.947 153.349 161.862C152.486 161.079 152.408 159.72 153.181 158.834C153.949 157.949 155.288 157.88 156.145 158.663C156.611 159.08 167.386 169.104 162.786 184.492C162.511 185.418 161.676 186.012 160.774 186.012Z" fill="#EE9B68"/>
<path d="M285.375 192.287C285.313 192.287 285.257 192.287 285.19 192.281C284.035 192.173 283.178 191.139 283.279 189.957C284.669 173.9 292.486 165.435 292.816 165.081C293.617 164.236 294.945 164.213 295.78 165.024C296.621 165.835 296.649 167.189 295.853 168.046C295.78 168.126 288.72 175.865 287.47 190.334C287.37 191.453 286.451 192.287 285.375 192.287Z" fill="#EE9B68"/>
<path d="M168.666 172.227C168.666 172.227 186.928 187.775 188.363 190.14C189.797 192.505 189.226 222.772 186.357 222.401C183.488 222.035 166.089 193.202 164.184 193.259C162.278 193.316 163.125 196.429 163.125 196.429C163.125 196.429 178.041 221.544 187.001 228.627C195.961 235.715 251.896 236.041 263.288 229.478C274.685 222.909 284.34 198.331 283.472 197.823C282.597 197.308 280.429 195.304 280.065 196.149C279.756 196.869 264.291 224.96 262.357 224.08C260.419 223.201 262.57 192.013 262.357 189.066C262.145 186.113 284.755 163.757 284.755 163.757L286.385 160.952L284.099 160.312C284.099 160.312 261.932 182.869 256.378 182.737C250.825 182.606 192.605 186.896 189.909 185.902C187.214 184.908 169.199 165.008 166.952 165.824C164.699 166.635 168.039 170.451 168.666 172.227Z" fill="#FFFCF6"/>
<path d="M161.37 287.772C161.37 287.772 209.084 345.919 245.883 330.36C282.675 314.8 317.148 272.624 298.651 267.026C280.154 261.434 132.445 264.376 161.37 287.772Z" fill="#FFCEB0"/>
<path d="M370.875 253.321C370.875 253.321 364.409 201.994 362.24 198.669C360.072 195.345 343.67 220.586 348.097 234.894C352.529 249.203 291.232 249.557 296.012 270.457C300.792 291.351 297.861 319.591 323.284 321.036C348.702 322.487 377.712 315.455 383.657 305.831C389.608 296.212 370.875 253.321 370.875 253.321Z" fill="url(#paint0_linear)"/>
<path d="M409.082 299.541C409.082 299.541 479.963 383.942 466.133 439.454C452.303 494.965 384.876 503.95 371.045 496.763C357.215 489.576 362.4 251.449 409.082 299.541Z" fill="#D9423D"/>
<path d="M81.1145 288.982C81.1145 288.982 -4.87162 383.126 0.70949 467.16C5.31559 536.537 109.782 525.982 122.637 519.43C135.497 512.878 124.503 245.138 81.1145 288.982Z" fill="#D9423D"/>
<path d="M375.782 265.523C375.782 265.523 462.094 439.548 438.385 469.342C414.677 499.135 372.532 502.539 355.716 477.829C345.893 463.407 359.611 335.968 345.109 320.346C330.607 304.724 371.182 257.326 375.782 265.523Z" fill="#FFCEB0"/>
<path d="M242.991 444.932C242.991 444.932 301.676 467.5 311.062 486.521C320.448 505.542 285.622 482.345 277.424 478.895C269.232 475.451 298.768 499.43 299.665 504.976C300.556 510.517 266.8 488.629 266.8 488.629C266.8 488.629 290.251 513.915 287.942 519.187C285.634 524.465 258.815 502.76 258.815 502.76C258.815 502.76 272.729 525.219 268.167 528.406C263.606 531.594 233.319 494.346 208.35 495.871C183.38 497.402 88.8265 553.31 52.8574 497.139C16.8828 440.968 47.2371 414.231 116.895 415.013C186.552 415.802 223.647 436.661 242.991 444.932Z" fill="#FFCEB0"/>
<defs>
<linearGradient id="paint0_linear" x1="384.542" y1="332.88" x2="338.737" y2="198.9" gradientUnits="userSpaceOnUse">
<stop stop-color="#FFC4A0"/>
<stop offset="1" stop-color="#FFCEB0"/>
</linearGradient>
</defs>
</svg>
