<svg width="268" height="253" viewBox="0 0 268 253" fill="none" xmlns="http://www.w3.org/2000/svg">
<g filter="url(#filter0_d)">
<path d="M102.101 239.072C87.8639 244.214 73.4889 246.589 58.1559 243.62C41.0656 240.308 26.2421 225.4 17.8663 210.533C14.7542 205.01 12.2767 198.84 12.6004 192.481C13.3537 177.792 26.9678 176.15 38.5241 178.526C45.0384 179.862 51.0199 182.904 56.9335 185.916C66.7514 190.92 78.2681 193.381 87.0702 200.318C90.0238 202.653 92.2419 205.457 95.674 207.156C101.013 209.8 107.107 211.048 112.59 213.454C117.272 215.519 122.505 218.915 122.512 224.113C122.513 229.443 117.057 232.84 112.264 234.962C108.87 236.474 105.492 237.853 102.101 239.072Z" fill="url(#paint0_linear)"/>
<path d="M49.6967 49.595C73.019 14.56 121.245 0.492763 160.336 13.6652C179.185 20.0203 194.983 33.2534 209.553 46.9906C222.397 59.0981 234.857 72.1572 243.628 87.722C249.616 98.3463 253.903 111.082 256.93 122.971C261.455 140.774 257.345 163.712 234.769 162.031C229.472 161.637 224.89 159.696 219.936 157.997C215.929 156.62 212.002 157.446 207.842 156.773C197.37 155.083 187.282 151.153 177.742 146.55C158.301 137.16 140.537 124.403 120.543 116.175C104.158 109.44 86.6606 105.964 68.9939 105.932C61.5407 105.919 53.704 106.451 47.0369 103.054C30.6044 94.6731 37.9939 72.0749 44.131 59.3626C45.7569 55.9764 47.6168 52.7124 49.6967 49.595Z" fill="url(#paint1_linear)"/>
<path d="M232.558 54.8831C236.397 58.4279 251.483 68.1052 251.773 56.7489C251.842 53.9198 250.583 51.1728 248.87 49.1009C246.91 46.7228 244.688 45.4753 243.157 42.7048C241.284 39.3595 239.152 36.2154 236.789 33.3133C231.958 27.2728 226.317 21.6916 219.473 19.2049C214.673 17.4628 206.545 17.9009 204.265 24.1721C200.943 33.3013 215.148 34.974 219.479 38.301C223.591 41.4501 225.919 46.8611 229.176 51.1615C230.205 52.5175 231.337 53.7633 232.558 54.8831Z" fill="url(#paint2_linear)"/>
<path d="M161.556 43.7793C169.689 48.6602 175.79 55.966 183.205 61.8499C195.55 71.6445 212.471 73.6483 226.628 80.4597C241.063 87.4095 251.963 98.21 256.892 113.777C263.258 133.869 263.863 157.764 258.454 178.421C252.497 201.159 238.508 216.263 218.054 226.335C197.611 236.402 174.966 241.1 152.38 242.069C150.2 242.164 148.024 242.216 145.84 242.23C96.7732 242.52 31.4628 224.916 14.7578 171.186C14.6046 170.695 14.4579 170.205 14.3107 169.707C12.5894 163.721 11.5773 157.546 11.2961 151.315C10.2453 129.224 14.0383 104.841 21.6361 84.1323C26.7464 70.1902 37.7505 58.4015 49.3458 50.0019C65.6373 38.2014 85.5151 35.1899 105.3 33.774C119.95 32.7262 136.427 32.3434 150.281 38.0556C154.174 39.6736 157.943 41.5869 161.556 43.7793Z" fill="url(#paint3_linear)"/>
<path d="M192.898 236.088C130.006 254.729 80.4301 238.13 62.0867 226.812L45.0535 213.498L50.9496 203.511L87.6364 200.183L148.563 196.854L197.697 206.84L207.105 201.964L208.783 219.633C211.019 233.312 209.342 229.893 192.898 236.088Z" fill="#FB4C47"/>
<path d="M75.9548 228.171H183.651C183.651 228.171 193.242 146.264 179.063 138.276C164.886 130.288 98.5892 131.958 83.8949 138.78C69.2006 145.602 75.9548 228.171 75.9548 228.171Z" fill="#FB4C47"/>
<path d="M80.9275 121.025C80.708 121.025 80.4861 120.942 80.3144 120.774C80.2189 120.684 70.9214 111.471 77.3321 95.2507C79.5795 89.5632 81.6719 85.5678 83.5161 82.0447C86.8468 75.6876 89.2517 71.0933 90.3563 60.9746C90.4112 60.4754 90.8597 60.1248 91.344 60.1687C91.8355 60.2247 92.1886 60.6775 92.1337 61.1766C90.9909 71.646 88.388 76.6153 85.0956 82.9066C83.2704 86.3883 81.2043 90.3374 78.9902 95.9324C73.0328 111.011 81.4572 119.364 81.5407 119.45C81.9009 119.795 81.9176 120.372 81.5765 120.737C81.4023 120.927 81.1661 121.025 80.9275 121.025Z" fill="#000C3E"/>
<path d="M140.74 24.6259C140.484 31.5576 134.773 36.9676 127.98 36.707C121.188 36.4465 115.887 30.6178 116.142 23.6861C116.397 16.7544 122.109 11.3444 128.901 11.605C135.694 11.8655 140.995 17.6942 140.74 24.6259Z" fill="#000C3E"/>
<path d="M80.1009 116.163C80.1009 116.163 83.1714 124.005 97.6916 127.745C112.212 131.484 124.136 126.895 135.194 131.925C146.255 136.958 163.042 132.677 166.635 128.047C170.225 123.416 173.322 69.4499 165.003 59.7573C156.683 50.0622 110.305 39.0937 99.3974 48.9324C88.4894 58.7712 74.0791 109.621 80.1009 116.163Z" fill="#000C3E"/>
<path d="M171.35 76.7327C170.51 99.5754 151.686 117.4 129.3 116.545C106.916 115.688 86.1401 95.4534 86.9799 72.6107C87.8174 49.7681 106.818 33.1851 129.202 34.0422C151.588 34.8967 172.19 53.8901 171.35 76.7327Z" fill="#000C3E"/>
<path d="M147.456 111.34C147.456 111.34 150.087 143.574 147.456 147.155C144.824 150.737 128.152 148.051 123.767 147.155C119.379 146.262 117.623 111.34 120.257 111.34C122.889 111.34 146.95 104.153 147.456 111.34Z" fill="#FFCEB0"/>
<path d="M97.7039 73.6304C97.7039 73.6304 99.3716 123.871 132.656 126.04C165.941 128.21 165.908 57.4224 153.861 50.6903C141.815 43.9559 91.5508 45.2195 97.7039 73.6304Z" fill="#FFCEB0"/>
<path d="M137.259 84.3857C137.259 84.3857 143.615 99.8487 141.981 100.874C140.344 101.899 135.558 101.716 134.268 100.579C132.977 99.4421 134.659 82.6546 137.259 84.3857Z" fill="#EE9B68"/>
<path d="M123.912 46.838C123.912 46.838 111.978 52.7276 109.707 63.7837C107.435 74.8422 108.612 103.153 95.9667 101.853C95.9667 101.853 71.481 45.8251 123.912 46.838Z" fill="#000C3E"/>
<path d="M130.204 47.0783C129.121 47.8696 142.51 47.8379 150.164 57.3066C157.82 66.7753 159.638 90.4409 160.821 90.8816C162.005 91.3198 166.731 61.5552 158.34 52.6125C149.947 43.6721 136.367 42.5765 130.204 47.0783Z" fill="#000C3E"/>
<path d="M120.718 121.459C120.718 121.459 133.668 128.973 147.114 121.951C147.114 121.951 148.159 130.385 147.114 132.33C146.067 134.276 124.771 135.666 120.579 126.078C120.579 126.078 119.508 121.043 120.718 121.459Z" fill="#EE9B68"/>
<path d="M157.663 92.8871C157.663 92.8871 160.28 80.2873 164.647 84.7185C169.01 89.1497 164.928 102.329 160.572 103.566C156.215 104.803 155.213 99.3927 157.663 92.8871Z" fill="#FFCEB0"/>
<path d="M105.453 90.891C105.453 90.891 103.199 78.1062 97.3272 82.1454C91.4557 86.1846 95.5068 99.6755 100.899 101.285C106.288 102.892 108.004 97.5889 105.453 90.891Z" fill="#FFCEB0"/>
<path d="M144.228 77.3165C144.228 77.3165 149.753 73.5305 153.83 77.6671C157.414 81.3046 149.841 78.8625 147.229 79.6684C144.616 80.4719 141.074 80.6277 144.228 77.3165Z" fill="#41294A"/>
<path d="M129.656 78.2107C129.656 78.2107 124.36 74.0985 120.051 77.9819C116.262 81.3978 123.964 79.4159 126.524 80.3776C129.084 81.3369 132.615 81.707 129.656 78.2107Z" fill="#41294A"/>
<path d="M123.903 82.3479C118.728 82.3479 114.522 86.4845 114.328 91.7654C114.13 97.1559 118.267 101.706 123.552 101.909L123.917 101.916C129.092 101.916 133.298 97.7792 133.491 92.4983C133.587 89.8858 132.68 87.3926 130.939 85.4765C129.197 83.5604 126.828 82.4526 124.27 82.3552L123.903 82.3479ZM123.917 103.133C123.781 103.133 123.645 103.131 123.507 103.126C117.566 102.897 112.914 97.7816 113.136 91.7192C113.36 85.6421 118.349 80.9211 124.313 81.1378C127.19 81.2474 129.855 82.494 131.812 84.6487C133.77 86.8034 134.789 89.6058 134.684 92.5421C134.465 98.4804 129.736 103.133 123.917 103.133Z" fill="#FFFCF6"/>
<path d="M113.736 92.3511C113.66 92.3511 113.583 92.3365 113.507 92.3048L104.486 88.492C104.183 88.363 104.038 88.0051 104.164 87.6959C104.291 87.3842 104.639 87.2357 104.942 87.3672L113.965 91.18C114.268 91.309 114.414 91.6645 114.287 91.9761C114.192 92.2099 113.97 92.3511 113.736 92.3511Z" fill="#FFFCF6"/>
<path d="M134.681 51.4962C134.681 51.4962 133.33 71.0033 140.686 73.4745C148.041 75.9482 162.247 75.6998 163.12 72.7197C163.993 69.7421 149.096 45.7721 138.405 41.9277C119.66 35.1884 102.572 63.3947 104.712 70.8888C106.852 78.3854 129.186 75.3249 132.622 74.3607C136.06 73.3966 133.994 56.8794 134.681 51.4962Z" fill="#000C3E"/>
<path d="M134.681 92.5446C134.373 92.5446 134.11 92.3011 134.087 91.9821C134.063 91.6461 134.308 91.354 134.635 91.3272L140.705 90.8573C141.039 90.8427 141.32 91.0813 141.347 91.4197C141.371 91.7533 141.125 92.0454 140.796 92.0722L134.728 92.5446C134.712 92.5446 134.695 92.5446 134.681 92.5446Z" fill="#FFFCF6"/>
<path d="M120.752 36.6365C120.613 36.6365 120.475 36.6048 120.344 36.5342C116.77 34.6546 114.637 32.0324 114.012 28.7455C112.63 21.5144 119.079 13.7451 119.356 13.4189C119.678 13.0366 120.241 12.9952 120.616 13.3191C120.992 13.6477 121.035 14.2248 120.713 14.607C120.651 14.6801 114.548 22.0403 115.768 28.4022C116.285 31.1096 118.101 33.3009 121.162 34.9127C121.601 35.144 121.775 35.6942 121.548 36.1422C121.389 36.4563 121.076 36.6365 120.752 36.6365Z" fill="#000C3E"/>
<path d="M134.949 38.8735C134.694 38.8735 134.439 38.7615 134.262 38.5473C133.945 38.1602 133.995 37.5831 134.374 37.2593C134.448 37.1984 141.651 30.9607 141.472 24.4818C141.396 21.7233 139.96 19.2569 137.199 17.1557C136.803 16.8538 136.722 16.2817 137.018 15.8775C137.311 15.4758 137.877 15.3905 138.268 15.6924C141.491 18.1467 143.171 21.0902 143.262 24.438C143.46 31.8031 135.846 38.3842 135.522 38.6617C135.355 38.8029 135.15 38.8735 134.949 38.8735Z" fill="#000C3E"/>
<path d="M163.553 126.204C163.264 126.204 162.98 126.06 162.808 125.797C162.532 125.379 162.644 124.814 163.054 124.531C163.41 124.285 171.822 118.393 170.505 107.328C169.992 103.008 168.833 98.19 167.604 93.0868C165.469 84.2049 163.257 75.0211 163.815 66.3583C163.846 65.8567 164.285 65.4526 164.767 65.5061C165.261 65.5402 165.633 65.9736 165.6 66.4776C165.061 74.8604 167.236 83.903 169.343 92.6509C170.581 97.8077 171.755 102.68 172.28 107.106C173.735 119.311 164.443 125.78 164.047 126.051C163.896 126.153 163.722 126.204 163.553 126.204Z" fill="#000C3E"/>
<path d="M171.27 80.9154C171.23 80.9154 171.189 80.913 171.144 80.9057C170.655 80.8351 170.316 80.3749 170.385 79.8758C172.339 65.73 168.438 54.5059 158.795 46.5175C151.58 40.5402 143.716 38.7166 143.637 38.6996C143.156 38.5925 142.85 38.1055 142.958 37.6113C143.063 37.1194 143.542 36.8102 144.024 36.9174C144.353 36.9904 177.041 44.7767 172.155 80.129C172.093 80.5867 171.712 80.9154 171.27 80.9154Z" fill="#000C3E"/>
<path d="M138.908 116.729C137.09 116.729 135.682 116.14 135.592 116.101C135.138 115.907 134.924 115.373 135.114 114.908C135.303 114.446 135.825 114.227 136.281 114.416C136.31 114.429 139.02 115.541 141.387 114.346C141.831 114.117 142.365 114.302 142.587 114.755C142.806 115.205 142.627 115.753 142.184 115.977C141.069 116.544 139.924 116.729 138.908 116.729Z" fill="#EE9B68"/>
<path d="M102.064 98.0712C101.978 98.0712 101.89 98.059 101.804 98.0322C101.329 97.8837 101.064 97.3748 101.207 96.8928C103.009 90.8595 98.7 86.8519 98.657 86.8105C98.2872 86.4745 98.2562 85.8975 98.5854 85.5226C98.9123 85.1452 99.4825 85.1111 99.8475 85.4471C100.062 85.6419 105.051 90.2873 102.92 97.4235C102.804 97.818 102.448 98.0712 102.064 98.0712Z" fill="#EE9B68"/>
<path d="M160.597 98.2495C160.576 98.2495 160.554 98.2495 160.535 98.2471C160.041 98.2106 159.669 97.7747 159.705 97.2732C160.111 91.4371 163.682 88.4814 163.833 88.3596C164.226 88.0455 164.777 88.1113 165.087 88.5057C165.395 88.8977 165.331 89.4723 164.949 89.7864C164.918 89.8132 161.838 92.4013 161.49 97.3998C161.456 97.8819 161.063 98.2495 160.597 98.2495Z" fill="#EE9B68"/>
<path d="M100.9 141.568C100.9 141.568 131.706 169.466 148.879 162.195C166.05 154.925 171.124 137.846 162.492 135.231C153.86 132.616 87.4009 130.639 100.9 141.568Z" fill="#FFCEB0"/>
<path d="M140.687 113.457C140.587 113.457 140.484 113.44 140.384 113.404C137.581 112.367 136.195 111.103 136.142 109.535C136.059 106.976 139.89 105.182 140.327 104.984C140.775 104.782 141.305 104.989 141.506 105.452C141.704 105.912 141.501 106.453 141.047 106.657C139.771 107.232 137.898 108.527 137.932 109.474C137.953 110.161 139.098 110.986 140.99 111.685C141.455 111.858 141.696 112.381 141.529 112.853C141.396 113.226 141.052 113.457 140.687 113.457Z" fill="#EE9B68"/>
<path d="M126.525 94.6544C126.244 94.6544 125.962 94.5522 125.736 94.3501C121.742 90.7467 118.962 91.6816 118.845 91.7206C118.232 91.9446 117.55 91.6207 117.323 90.9999C117.096 90.3766 117.392 89.6876 117.998 89.4465C118.165 89.3783 122.157 87.8712 127.315 92.524C127.809 92.9696 127.857 93.7414 127.42 94.2429C127.184 94.5156 126.854 94.6544 126.525 94.6544Z" fill="#41294A"/>
<path d="M147.581 94.8821C147.252 94.8821 146.925 94.7433 146.686 94.4706C146.25 93.9666 146.297 93.1973 146.791 92.7517C151.956 88.0941 155.941 89.606 156.108 89.6742C156.721 89.9177 157.026 90.6237 156.785 91.2495C156.549 91.8728 155.867 92.1795 155.258 91.9482C155.115 91.8971 152.343 90.9963 148.371 94.5777C148.144 94.7798 147.862 94.8821 147.581 94.8821Z" fill="#41294A"/>
<path d="M222.2 114.063L199.582 107.397L192.962 116.13L176.967 114.406L195.815 123.834L202.395 112.853L222.2 114.063Z" fill="#000C3E"/>
<path d="M202.555 97.2691L188.274 97.4955L185.948 103.76L176.366 105.654L188.942 107.714L190.853 100.152L202.555 97.2691Z" fill="#000C3E"/>
<path d="M150.864 80.7971C145.69 80.7971 141.483 84.9337 141.29 90.2146C141.092 95.6076 145.229 100.156 150.514 100.358L150.879 100.365C156.054 100.365 160.26 96.2284 160.453 90.9475C160.651 85.557 156.512 81.0065 151.23 80.8044L150.864 80.7971ZM150.879 101.582C150.74 101.582 150.604 101.58 150.466 101.575C144.528 101.346 139.875 96.2309 140.097 90.1708C140.321 84.0913 145.305 79.3752 151.277 79.587C157.216 79.8159 161.866 84.9313 161.646 90.9913C161.429 96.9296 156.698 101.582 150.879 101.582Z" fill="#FFFCF6"/>
<path d="M116.133 184.439C116.133 184.439 134.268 162.636 150.105 132.944C156.31 121.306 167.937 118.48 168.359 120.111C168.781 121.745 161.602 128.557 161.602 128.557C161.602 128.557 171.169 121.36 172.72 123.707C174.271 126.054 166.46 133.183 166.46 133.183C166.46 133.183 173.426 129.071 176.382 130.795C179.338 132.518 168.146 134.707 168.359 140.706C171.608 232.837 129.031 225.657 129.031 225.657L116.133 184.439Z" fill="#FFBD96"/>
<path d="M134.272 163.548C134.159 163.548 134.045 163.526 133.933 163.48C133.477 163.29 133.258 162.757 133.444 162.289C143.865 136.255 150.276 132.449 150.543 132.301C150.977 132.057 151.519 132.225 151.757 132.663C151.994 133.104 151.836 133.654 151.411 133.898C151.29 133.973 145.108 137.976 135.099 162.981C134.959 163.334 134.622 163.548 134.272 163.548Z" fill="#EE9B68"/>
<path d="M106.613 200.855L45.1303 205.858C45.1303 205.858 43.0666 175.818 51.9347 160.309C60.8028 144.8 85.5271 137.783 89.6617 136.914C93.7964 136.045 106.613 200.855 106.613 200.855Z" fill="#FB4C47"/>
<path d="M177.36 137.403C177.36 137.403 199.488 142.29 203.742 166.173C206.464 181.441 210.284 230.249 210.284 230.249L200.393 234.114L191.304 236.875L172.169 241.292L177.36 137.403Z" fill="#D9423D"/>
<path d="M113.729 180.557C113.729 180.557 140.016 224.492 130.876 225.709C121.736 226.926 75.2123 230.578 62.6867 225.709C50.1611 220.84 43.7791 214.816 45.3728 201.41C43.967 180.557 50.6774 155.029 54.0128 160.809C70.9713 190.199 113.729 180.557 113.729 180.557Z" fill="#D9423D"/>
<path d="M111.104 181.775C93.7351 181.775 78.0102 164.199 77.3493 163.451C76.9079 162.952 76.9461 162.18 77.4352 161.732C77.9243 161.282 78.6782 161.321 79.1196 161.82C79.2746 161.995 94.804 179.34 111.104 179.34C111.762 179.34 112.297 179.886 112.297 180.558C112.297 181.23 111.762 181.775 111.104 181.775Z" fill="#B43936"/>
<path d="M180.836 225.235H180.808C180.149 225.218 179.627 224.66 179.643 223.988C179.65 223.677 180.361 192.741 179.646 178.865C178.973 165.832 175.666 162.906 175.633 162.877C175.134 162.458 175.041 161.701 175.437 161.179C175.828 160.663 176.546 160.544 177.071 160.934C177.501 161.257 181.292 164.488 182.027 178.736C182.75 192.707 182.036 223.735 182.029 224.047C182.012 224.709 181.483 225.235 180.836 225.235Z" fill="#B43936"/>
<path d="M132.017 14.044C131.703 14.044 131.362 14.0811 130.993 14.1555C130.092 14.3397 129.509 14.7857 129.159 15.5597C127.597 19.0048 130.89 27.2103 133.242 32.058C134.696 26.6803 136.438 17.691 133.976 14.8584C133.502 14.3138 132.857 14.044 132.017 14.044ZM133.516 36.1042C133.125 36.1042 132.759 35.8893 132.565 35.5338C131.733 34.0133 124.517 20.5092 127.18 14.6289C127.821 13.215 128.992 12.2972 130.566 11.9772C133.248 11.4327 134.789 12.4426 135.607 13.3847C139.884 18.3067 135.111 33.6125 134.553 35.3415C134.417 35.7601 134.052 36.0574 133.621 36.0994C133.586 36.1026 133.551 36.1042 133.516 36.1042Z" fill="#FFD310"/>
<path d="M146.708 19.5084C146.605 19.5084 146.5 19.5149 146.396 19.531C142.713 20.0303 138.263 27.9919 135.911 33.0286C140.801 30.9296 148.558 26.9205 149.588 23.2751C149.82 22.4542 149.664 21.7286 149.102 20.9886C148.344 19.9948 147.559 19.5084 146.708 19.5084ZM133.82 36.1748C133.527 36.1748 133.24 36.0552 133.032 35.8322C132.733 35.5123 132.647 35.0437 132.813 34.6365C133.501 32.9575 139.712 18.1979 146.107 17.3285C147.333 17.1621 149.144 17.4239 150.822 19.6247C151.808 20.9175 152.106 22.3928 151.682 23.8891C149.923 30.1119 135.797 35.5123 134.193 36.1086C134.07 36.1538 133.945 36.1748 133.82 36.1748Z" fill="#FFD310"/>
<path d="M113.361 32.251C118.654 35.7198 130.754 38.4178 140.207 32.251" stroke="#FFD310" stroke-width="1.63065"/>
</g>
<defs>
<filter id="filter0_d" x="7.12378" y="8.79517" width="259.002" height="244.124" filterUnits="userSpaceOnUse" color-interpolation-filters="sRGB">
<feFlood flood-opacity="0" result="BackgroundImageFix"/>
<feColorMatrix in="SourceAlpha" type="matrix" values="0 0 0 0 0 0 0 0 0 0 0 0 0 0 0 0 0 0 127 0"/>
<feOffset dy="4"/>
<feGaussianBlur stdDeviation="2"/>
<feColorMatrix type="matrix" values="0 0 0 0 0 0 0 0 0 0 0 0 0 0 0 0 0 0 0.25 0"/>
<feBlend mode="normal" in2="BackgroundImageFix" result="effect1_dropShadow"/>
<feBlend mode="normal" in="SourceGraphic" in2="effect1_dropShadow" result="shape"/>
</filter>
<linearGradient id="paint0_linear" x1="11.3367" y1="194.509" x2="26.639" y2="246.633" gradientUnits="userSpaceOnUse">
<stop stop-color="#FFD8D8"/>
<stop offset="1" stop-color="#FFF8F8"/>
</linearGradient>
<linearGradient id="paint1_linear" x1="257.561" y1="80.8982" x2="100.874" y2="-16.1391" gradientUnits="userSpaceOnUse">
<stop stop-color="#FFF8F8"/>
<stop offset="1" stop-color="#FFCFCF"/>
</linearGradient>
<linearGradient id="paint2_linear" x1="252.165" y1="56.5497" x2="195.114" y2="32.6445" gradientUnits="userSpaceOnUse">
<stop stop-color="#FFD7D7"/>
<stop offset="1" stop-color="#FFF9F9"/>
</linearGradient>
<linearGradient id="paint3_linear" x1="239.362" y1="219.4" x2="9.16927" y2="88.6264" gradientUnits="userSpaceOnUse">
<stop stop-color="#FFCFCF"/>
<stop offset="1" stop-color="#FFF8F8"/>
</linearGradient>
</defs>
</svg>
