<svg width="282" height="298" viewBox="0 0 282 298" fill="none" xmlns="http://www.w3.org/2000/svg">
<path d="M106.951 283.266C91.9483 288.685 76.7999 291.188 60.6418 288.059C42.632 284.569 27.0109 268.859 18.1845 253.192C14.905 247.372 12.2941 240.869 12.6353 234.169C13.4291 218.689 27.7757 216.959 39.9538 219.463C46.8185 220.871 53.1219 224.076 59.3537 227.25C69.6998 232.524 81.8362 235.118 91.1119 242.428C94.2244 244.888 96.5618 247.843 100.179 249.633C105.805 252.419 112.227 253.734 118.005 256.27C122.939 258.446 128.454 262.025 128.461 267.502C128.462 273.12 122.712 276.699 117.661 278.936C114.085 280.529 110.525 281.982 106.951 283.266Z" fill="url(#paint0_linear)"/>
<path d="M51.7294 83.5946C76.3066 46.6745 127.127 31.8504 168.321 45.7315C188.185 52.4286 204.833 66.3737 220.187 80.8501C233.722 93.609 246.852 107.371 256.095 123.773C262.406 134.969 266.923 148.39 270.113 160.919C274.881 179.679 270.551 203.851 246.76 202.08C241.178 201.665 236.349 199.619 231.129 197.829C226.906 196.378 222.768 197.249 218.383 196.54C207.348 194.759 196.717 190.617 186.664 185.766C166.177 175.871 147.457 162.428 126.388 153.757C109.121 146.66 90.6822 142.996 72.0649 142.962C64.2107 142.949 55.9523 143.51 48.9265 139.93C31.6099 131.098 39.397 107.284 45.8642 93.8877C47.5776 90.3194 49.5376 86.8796 51.7294 83.5946Z" fill="url(#paint1_linear)"/>
<path d="M244.427 89.1674C248.473 92.903 264.37 103.101 264.676 91.1336C264.749 88.1522 263.422 85.2574 261.617 83.0741C259.551 80.5681 257.209 79.2535 255.596 76.3338C253.623 72.8086 251.376 69.4953 248.886 66.437C243.795 60.0715 237.851 54.19 230.638 51.5695C225.58 49.7337 217.015 50.1954 214.612 56.8041C211.111 66.4244 226.08 68.1872 230.645 71.6931C234.977 75.0117 237.431 80.7138 240.863 85.2456C241.947 86.6745 243.14 87.9874 244.427 89.1674Z" fill="url(#paint2_linear)"/>
<path d="M169.607 77.4656C178.177 82.6091 184.606 90.3081 192.42 96.5085C205.429 106.83 223.261 108.942 238.18 116.12C253.392 123.443 264.878 134.825 270.072 151.229C276.781 172.403 277.419 197.584 271.718 219.352C265.441 243.313 250.699 259.23 229.144 269.844C207.602 280.452 183.738 285.403 159.937 286.424C157.64 286.525 155.347 286.579 153.045 286.594C101.338 286.9 32.5139 268.348 14.91 211.728C14.7486 211.21 14.594 210.693 14.4389 210.168C12.625 203.86 11.5584 197.354 11.262 190.787C10.1548 167.508 14.1518 141.813 22.1585 119.99C27.5437 105.298 39.1398 92.8746 51.3591 84.023C68.5271 71.5877 89.4745 68.414 110.323 66.922C125.762 65.8178 143.125 65.4144 157.725 71.4339C161.828 73.1391 165.799 75.1553 169.607 77.4656Z" fill="url(#paint3_linear)"/>
<path d="M72.8666 113.141C72.8666 113.141 125.437 184.693 138.588 190.609C151.743 196.529 168.233 195.196 169.675 202.06C171.117 208.927 142.067 197.312 146.701 207.905C151.336 218.502 169.396 230.597 169.481 241.266C169.569 251.938 140.742 218.36 140.742 218.36C140.742 218.36 167.903 249.08 158.909 249.807C149.912 250.533 126.648 220.498 126.648 220.498C126.648 220.498 152.671 259.898 144.045 256.3C135.422 252.701 55.4482 158.432 43.1155 148.456C30.7828 138.485 72.8666 113.141 72.8666 113.141Z" fill="#E27B5A"/>
<path d="M225.796 130.51C225.796 130.51 165.835 195.725 152.122 200.133C138.41 204.536 122.166 201.365 119.99 208.022C117.818 214.684 147.943 206.401 142.193 216.414C136.447 226.423 117.194 236.417 115.957 247.015C114.724 257.608 146.993 227.472 146.993 227.472C146.993 227.472 116.684 254.957 125.545 256.687C134.41 258.42 160.771 231.179 160.771 231.179C160.771 231.179 130.657 267.422 139.617 264.812C148.578 262.202 238.227 177.482 251.558 168.952C264.892 160.422 225.796 130.51 225.796 130.51Z" fill="#FFCEB0"/>
<path d="M174.748 175.793C174.748 175.793 193.19 211.39 210.144 215.177C227.095 218.965 263.715 185.174 271.706 168.437C279.699 151.703 240.742 101.063 232.406 93.779C220.362 92.2803 166.199 144.062 174.748 175.793Z" fill="#FB4C47"/>
<path d="M60.3179 78.6047C60.3179 78.6047 120.974 139.54 118.1 155.362C115.229 171.187 92.0678 190.143 73.3885 196.351C54.7092 202.556 13.8725 177.56 13.8725 159.333C10.8947 128.377 26.3774 96.2071 60.3179 78.6047Z" fill="#128E5A"/>
<defs>
<linearGradient id="paint0_linear" x1="11.3035" y1="236.305" x2="27.4292" y2="291.235" gradientUnits="userSpaceOnUse">
<stop stop-color="#FFD0D0"/>
<stop offset="1" stop-color="#FFF8F8"/>
</linearGradient>
<linearGradient id="paint1_linear" x1="302.049" y1="88.9726" x2="127.498" y2="49.4313" gradientUnits="userSpaceOnUse">
<stop stop-color="#FFF8F8"/>
<stop offset="1" stop-color="#FFD0D0"/>
</linearGradient>
<linearGradient id="paint2_linear" x1="265.089" y1="90.9237" x2="204.969" y2="65.7323" gradientUnits="userSpaceOnUse">
<stop stop-color="#FFD0D0"/>
<stop offset="1" stop-color="#FFF7F7"/>
</linearGradient>
<linearGradient id="paint3_linear" x1="251.599" y1="262.536" x2="9.02085" y2="124.726" gradientUnits="userSpaceOnUse">
<stop stop-color="#FFCFCF"/>
<stop offset="1" stop-color="#FFF8F8"/>
</linearGradient>
</defs>
</svg>
