<svg width="431" height="234" viewBox="0 0 431 234" fill="none" xmlns="http://www.w3.org/2000/svg">
<path opacity="0.13" d="M430.275 89.1072C430.275 49.7208 398.951 17.7912 360.312 17.7912C321.673 17.7912 290.352 49.7208 290.352 89.1072C290.352 128.494 321.673 160.423 360.312 160.423C398.951 160.423 430.275 128.494 430.275 89.1072Z" fill="#FF383D"/>
<path d="M316.659 72.4662C316.659 71.5997 316.867 70.8441 317.282 70.1996C317.705 69.5551 318.295 69.0573 319.055 68.7064C319.821 68.3555 320.702 68.1801 321.697 68.1801C322.678 68.1801 323.552 68.3519 324.318 68.6957C325.085 69.0394 325.682 69.5264 326.112 70.1566C326.542 70.7868 326.757 71.5209 326.757 72.3588H324.103C324.089 71.7572 323.849 71.2738 323.384 70.9086C322.925 70.5362 322.32 70.35 321.568 70.35C320.881 70.35 320.329 70.5219 319.914 70.8656C319.506 71.2022 319.302 71.639 319.302 72.1761C319.302 72.7061 319.481 73.0964 319.839 73.347C320.204 73.5977 320.687 73.7946 321.289 73.9379L323.599 74.5072C324.651 74.7579 325.503 75.2198 326.155 75.8929C326.807 76.559 327.133 77.4183 327.133 78.4711C327.133 79.3519 326.911 80.1218 326.467 80.7806C326.03 81.4395 325.407 81.9515 324.598 82.3168C323.795 82.6748 322.861 82.8539 321.794 82.8539C320.211 82.8539 318.922 82.4707 317.927 81.7045C316.938 80.931 316.401 79.8819 316.315 78.557H318.969C318.997 79.2159 319.273 79.7351 319.796 80.1146C320.319 80.487 320.999 80.6732 321.837 80.6732C322.646 80.6732 323.28 80.5013 323.738 80.1576C324.196 79.8138 324.426 79.3412 324.426 78.7396C324.426 78.224 324.265 77.8337 323.942 77.5687C323.62 77.3038 323.197 77.1068 322.675 76.9779L320.311 76.4086C319.151 76.1293 318.252 75.6638 317.615 75.0121C316.978 74.3532 316.659 73.5046 316.659 72.4662ZM329.474 68.4594H332.053V74.3138L338.305 74.3353V68.4594H340.893V82.5638H338.305V76.559H332.053V82.5638H329.474V68.4594ZM347.811 68.4594H350.432L355.664 82.5638H352.935L351.797 79.3519H346.404L345.212 82.5638H342.548L347.811 68.4594ZM351.045 77.2142L350.142 74.7328C350.057 74.4965 349.82 73.7982 349.433 72.6381L349.133 71.7572C349.075 71.9506 348.939 72.3552 348.724 72.9711C348.51 73.587 348.291 74.1742 348.069 74.7328L347.145 77.2142H351.045ZM364.161 74.5287L369.027 82.5638H365.923L362.399 76.7094L360.068 79.599V82.6068H357.469V68.4594H360.068V75.6351L365.837 68.4594H369.049L364.161 74.5287ZM370.896 82.5638V68.4594H373.474V82.5638H370.896ZM387.966 68.4594V82.5638H385.549L379.06 72.9066V82.5638H376.504V68.4594H378.932L385.42 78.1381V68.4594H387.966ZM404.562 74.9047V76.2474C404.562 77.5508 404.262 78.7038 403.66 79.7064C403.058 80.7019 402.221 81.4753 401.146 82.0267C400.079 82.5782 398.862 82.8539 397.494 82.8539C396.069 82.8539 394.819 82.5531 393.745 81.9515C392.671 81.35 391.836 80.5049 391.242 79.4164C390.648 78.3207 390.35 77.0531 390.35 75.6136C390.35 74.1455 390.655 72.8529 391.264 71.7357C391.872 70.6114 392.724 69.7377 393.82 69.1146C394.923 68.4916 396.187 68.1801 397.612 68.1801C398.758 68.1801 399.796 68.3806 400.727 68.7816C401.666 69.1827 402.443 69.7484 403.058 70.4789C403.674 71.2022 404.079 72.0329 404.272 72.9711H401.522C401.243 72.212 400.749 71.6211 400.04 71.1986C399.331 70.7689 398.497 70.5541 397.537 70.5541C396.14 70.5541 395.038 71.0124 394.228 71.9291C393.419 72.8457 393.015 74.0596 393.015 75.5707C393.015 77.0817 393.423 78.2741 394.239 79.1478C395.063 80.0144 396.169 80.4476 397.558 80.4476C398.719 80.4476 399.678 80.1576 400.437 79.5775C401.204 78.9903 401.662 78.1667 401.812 77.1068H397.344V74.9047H404.562ZM333.911 111.854C332.5 111.854 331.243 111.55 330.14 110.941C329.045 110.332 328.189 109.469 327.573 108.352C326.957 107.235 326.649 105.953 326.649 104.506C326.649 103.067 326.954 101.792 327.562 100.682C328.171 99.5648 329.023 98.7019 330.119 98.0931C331.222 97.4844 332.486 97.1801 333.911 97.1801C335.085 97.1801 336.16 97.3806 337.134 97.7816C338.108 98.1827 338.913 98.7627 339.551 99.5219C340.188 100.274 340.596 101.148 340.775 102.143H337.907C337.685 101.384 337.212 100.764 336.489 100.285C335.766 99.7976 334.899 99.5541 333.89 99.5541C332.98 99.5541 332.178 99.7582 331.483 100.166C330.796 100.575 330.266 101.158 329.893 101.917C329.521 102.669 329.335 103.539 329.335 104.528C329.335 105.523 329.525 106.397 329.904 107.149C330.284 107.894 330.817 108.463 331.505 108.857C332.199 109.251 332.994 109.448 333.89 109.448C334.871 109.448 335.726 109.211 336.457 108.739C337.195 108.259 337.678 107.625 337.907 106.837H340.775C340.611 107.818 340.213 108.692 339.583 109.458C338.953 110.217 338.151 110.808 337.177 111.231C336.203 111.646 335.114 111.854 333.911 111.854ZM343.117 97.4594H345.695V103.314L351.947 103.335V97.4594H354.536V111.564H351.947V105.559H345.695V111.564H343.117V97.4594ZM357.576 111.564V97.4594H360.154V111.564H357.576ZM371.616 109.233V111.564H363.183V97.4594H365.783V109.233H371.616ZM382.122 109.233V111.564H373.689V97.4594H376.289V109.233H382.122ZM383.798 101.466C383.798 100.6 384.005 99.8441 384.421 99.1996C384.843 98.5551 385.434 98.0573 386.193 97.7064C386.959 97.3555 387.84 97.1801 388.836 97.1801C389.817 97.1801 390.691 97.3519 391.457 97.6957C392.223 98.0394 392.821 98.5264 393.251 99.1566C393.681 99.7868 393.895 100.521 393.895 101.359H391.242C391.228 100.757 390.988 100.274 390.522 99.9086C390.064 99.5362 389.459 99.35 388.707 99.35C388.019 99.35 387.468 99.5219 387.053 99.8656C386.644 100.202 386.44 100.639 386.44 101.176C386.44 101.706 386.619 102.096 386.977 102.347C387.343 102.598 387.826 102.795 388.428 102.938L390.737 103.507C391.79 103.758 392.642 104.22 393.294 104.893C393.946 105.559 394.271 106.418 394.271 107.471C394.271 108.352 394.049 109.122 393.605 109.781C393.168 110.439 392.545 110.952 391.736 111.317C390.934 111.675 390 111.854 388.932 111.854C387.35 111.854 386.061 111.471 385.065 110.704C384.077 109.931 383.54 108.882 383.454 107.557H386.107C386.136 108.216 386.412 108.735 386.934 109.115C387.457 109.487 388.138 109.673 388.975 109.673C389.785 109.673 390.418 109.501 390.877 109.158C391.335 108.814 391.564 108.341 391.564 107.74C391.564 107.224 391.403 106.834 391.081 106.569C390.759 106.304 390.336 106.107 389.813 105.978L387.45 105.409C386.29 105.129 385.391 104.664 384.754 104.012C384.116 103.353 383.798 102.505 383.798 101.466Z" fill="#FA5652"/>
<path d="M360.807 1.70672C312.499 1.70672 273.337 41.6261 273.337 90.8693C273.337 140.115 312.499 180.035 360.807 180.035V224.067" stroke="#FFD6D7" stroke-width="2.4" stroke-miterlimit="10"/>
<path d="M367.997 226.292C367.997 222.241 364.777 218.959 360.804 218.959C356.83 218.959 353.61 222.241 353.61 226.292C353.61 230.339 356.83 233.624 360.804 233.624C364.777 233.624 367.997 230.339 367.997 226.292Z" fill="#F2AEB0"/>
<path d="M0.13855 143.663H90.1333C97.4901 143.663 104.44 140.289 108.991 134.509L134.14 102.563C138.691 96.7826 145.641 93.4086 152.998 93.4086H246.036" stroke="#FFA6A6" stroke-width="5" stroke-linejoin="round"/>
<path d="M251.927 92.688C251.927 97.7727 247.884 101.894 242.896 101.894C237.908 101.894 233.864 97.7727 233.864 92.688C233.864 87.6033 237.908 83.4816 242.896 83.4816C247.884 83.4816 251.927 87.6033 251.927 92.688Z" fill="#FF383D"/>
</svg>
